<?xml version="1.0" encoding="iso-8859-1"?>
<!-- Generator: Adobe Illustrator 19.0.0, SVG Export Plug-In . SVG Version: 6.00 Build 0)  -->
<svg version="1.1" id="Capa_1" xmlns="http://www.w3.org/2000/svg" xmlns:xlink="http://www.w3.org/1999/xlink" x="0px" y="0px"
	 viewBox="0 0 512 512" style="enable-background:new 0 0 512 512;" xml:space="preserve">
<circle style="fill:#6D76E7;" cx="256" cy="256" r="256"/>
<path style="fill:#1C2EDE;" d="M512,256c0-13.302-1.016-26.366-2.972-39.12L402.141,109.858l0,0
	c-34.84-34.84-91.851-34.84-126.691,0L109.858,275.451c-34.84,34.84-34.84,91.851,0,126.69l0,0l106.969,106.877
	C229.598,510.98,242.68,512,256,512C397.385,512,512,397.385,512,256z"/>
<path style="fill:#FFFFFF;" d="M109.858,402.142L109.858,402.142c-34.84-34.84-34.84-91.851,0-126.691l165.593-165.593
	c34.84-34.84,91.851-34.84,126.691,0l0,0c34.84,34.84,34.84,91.85,0,126.69L236.548,402.142
	C201.708,436.982,144.698,436.982,109.858,402.142z"/>
<path style="fill:#9CFDFF;" d="M402.137,236.547l-165.59,165.59c-34.839,34.839-91.853,34.846-126.692,0.007l292.29-292.29
	c17.423,17.423,26.128,40.383,26.128,63.35C428.265,196.165,419.553,219.132,402.137,236.547z"/>
<path style="fill:#FFAA20;" d="M319.342,319.343l-82.795,82.795c-34.839,34.839-91.853,34.846-126.692,0.007
	s-34.832-91.853,0.007-126.692l82.795-82.795L319.342,319.343z"/>
<path style="fill:#E67500;" d="M319.342,319.343l-82.795,82.795c-34.839,34.839-91.853,34.846-126.692,0.007L256,256
	L319.342,319.343z"/>
<g>
</g>
<g>
</g>
<g>
</g>
<g>
</g>
<g>
</g>
<g>
</g>
<g>
</g>
<g>
</g>
<g>
</g>
<g>
</g>
<g>
</g>
<g>
</g>
<g>
</g>
<g>
</g>
<g>
</g>
</svg>
