<?xml version="1.0" encoding="iso-8859-1"?>
<!-- Generator: Adobe Illustrator 19.0.0, SVG Export Plug-In . SVG Version: 6.00 Build 0)  -->
<svg version="1.1" id="Capa_1" xmlns="http://www.w3.org/2000/svg" xmlns:xlink="http://www.w3.org/1999/xlink" x="0px" y="0px"
	 viewBox="0 0 512 512" style="enable-background:new 0 0 512 512;" xml:space="preserve">
<circle style="fill:#FFAA20;" cx="256" cy="256" r="256"/>
<path style="fill:#E67500;" d="M512,256c0-6.937-0.286-13.806-0.827-20.604L331.531,55.754H180.469v55.912l22.431,22.431h0.207
	v49.575c-54.466,20.813-93.071,72.817-93.071,133.685c0,40.574,17.158,77.208,44.729,103.293l91.133,91.133
	c3.353,0.13,6.717,0.216,10.101,0.216C397.385,512,512,397.385,512,256z"/>
<rect x="203.11" y="107.13" style="fill:#FFF5CB;" width="105.78" height="79.59"/>
<rect x="256" y="107.13" style="fill:#FFE670;" width="52.89" height="79.59"/>
<rect x="180.47" y="55.754" style="fill:#FFFFFF;" width="151.06" height="55.912"/>
<rect x="256" y="55.75" style="fill:#FFF5CB;" width="75.53" height="55.92"/>
<ellipse style="fill:#FFFFFF;" cx="256" cy="317.36" rx="145.96" ry="143.4"/>
<path style="fill:#FFF5CB;" d="M401.96,317.36c0,79.19-65.35,143.39-145.96,143.39V173.96c18.65,0,36.49,3.44,52.89,9.71
	C363.36,204.48,401.96,256.49,401.96,317.36z"/>
<path style="fill:#FF127F;" d="M256,428.142c62.279,0,112.767-49.6,112.767-110.784c0-3.236-0.149-6.438-0.426-9.604l-44.668,16.243
	c-24.997,9.09-52.969,3.672-72.765-14.093l0,0c-18.114-16.256-43.21-22.271-66.725-15.994l-40.206,10.734
	c-0.485,4.173-0.743,8.414-0.743,12.714C143.233,378.542,193.72,428.142,256,428.142z"/>
<g>
	<path style="fill:#B10853;" d="M368.77,317.36c0,61.18-50.49,110.78-112.77,110.78V314.07c19.32,14.4,44.75,18.27,67.67,9.93
		l44.67-16.25C368.62,310.92,368.77,314.12,368.77,317.36z"/>
	<circle style="fill:#B10853;" cx="289" cy="288.5" r="17.388"/>
</g>
<circle style="fill:#FF127F;" cx="220.56" cy="248.27" r="27.07"/>
<g>
</g>
<g>
</g>
<g>
</g>
<g>
</g>
<g>
</g>
<g>
</g>
<g>
</g>
<g>
</g>
<g>
</g>
<g>
</g>
<g>
</g>
<g>
</g>
<g>
</g>
<g>
</g>
<g>
</g>
</svg>
