<?xml version="1.0" encoding="iso-8859-1"?>
<!-- Generator: Adobe Illustrator 19.0.0, SVG Export Plug-In . SVG Version: 6.00 Build 0)  -->
<svg version="1.1" id="Capa_1" xmlns="http://www.w3.org/2000/svg" xmlns:xlink="http://www.w3.org/1999/xlink" x="0px" y="0px"
	 viewBox="0 0 512 512" style="enable-background:new 0 0 512 512;" xml:space="preserve">
<circle style="fill:#FF127F;" cx="256" cy="256" r="256"/>
<path style="fill:#B10853;" d="M512,256c0-19.285-2.147-38.066-6.189-56.132l-96.84-96.84c-20.29-20.29-53.186-20.29-73.476,0
	c-10.947,10.947-15.976,25.563-15.111,39.89l-43.594,43.594l-16.45-16.45l-17.68,17.679l15.562,15.562L150.01,311.517
	c-8.584,8.584-8.584,22.501,0,31.084l-46.98,46.98c-5.354,5.354-5.354,14.035,0,19.389l0,0l96.842,96.841
	C217.936,509.853,236.716,512,256,512C397.385,512,512,397.385,512,256z"/>
<rect x="289.321" y="152.368" transform="matrix(-0.7071 -0.7071 0.7071 -0.7071 419.5727 550.2888)" style="fill:#FFAA20;" width="68.867" height="71.759"/>
<rect x="300.04" y="183.207" transform="matrix(-0.7071 0.7071 -0.7071 -0.7071 715.1699 104.6099)" style="fill:#E67500;" width="71.759" height="34.43"/>
<path style="fill:#FFFFFF;" d="M311.831,250.642l-50.473-50.473L150.01,311.517c-8.584,8.584-8.584,22.501,0,31.084l0,0
	l-46.98,46.98c-5.354,5.354-5.354,14.035,0,19.389l0,0c5.354,5.354,14.035,5.354,19.389,0l46.98-46.98l0,0
	c8.584,8.584,22.501,8.584,31.084,0L311.831,250.642z"/>
<path style="fill:#9CFDFF;" d="M311.833,250.639L200.485,361.987c-4.292,4.292-9.914,6.435-15.542,6.435
	c-5.621,0.007-11.25-2.143-15.542-6.435l-46.98,46.98c-2.68,2.68-6.187,4.023-9.701,4.016c-3.507,0-7.015-1.343-9.687-4.016
	l183.565-183.565L311.833,250.639z"/>
<rect x="234.596" y="207.195" transform="matrix(-0.7071 -0.7071 0.7071 -0.7071 343.6316 581.7272)" style="fill:#FFC473;" width="115.399" height="25"/>
<rect x="300.186" y="211.248" transform="matrix(-0.7071 0.7071 -0.7071 -0.7071 703.5724 188.7669)" style="fill:#FFAA20;" width="25.01" height="57.699"/>
<circle style="fill:#FFC473;" cx="372.23" cy="139.77" r="51.956"/>
<path style="fill:#FFAA20;" d="M408.976,176.506c-10.953,10.953-25.583,15.995-39.909,15.118
	c-12.219-0.735-24.24-5.784-33.573-15.118l73.476-73.476C429.256,123.318,429.263,156.219,408.976,176.506z"/>
<g>
</g>
<g>
</g>
<g>
</g>
<g>
</g>
<g>
</g>
<g>
</g>
<g>
</g>
<g>
</g>
<g>
</g>
<g>
</g>
<g>
</g>
<g>
</g>
<g>
</g>
<g>
</g>
<g>
</g>
</svg>
