<?xml version="1.0" encoding="iso-8859-1"?>
<!-- Generator: Adobe Illustrator 19.0.0, SVG Export Plug-In . SVG Version: 6.00 Build 0)  -->
<svg version="1.1" id="Capa_1" xmlns="http://www.w3.org/2000/svg" xmlns:xlink="http://www.w3.org/1999/xlink" x="0px" y="0px"
	 viewBox="0 0 512 512" style="enable-background:new 0 0 512 512;" xml:space="preserve">
<circle style="fill:#FF127F;" cx="256" cy="256" r="256"/>
<path style="fill:#B10853;" d="M512,256c0-17.176-1.705-33.951-4.93-50.179L386.582,85.333h-81.259v97.142l-98.647-97.142h-81.259
	v224.751c0,37.696,16.062,71.706,41.694,95.564l105.783,105.783C406.401,502.73,512,391.707,512,256z"/>
<path style="fill:#54FBFF;" d="M256,440.667c-72.003,0-130.582-58.579-130.582-130.582V90.667h81.259v219.418
	c0,27.197,22.126,49.323,49.324,49.323c27.197,0,49.324-22.126,49.324-49.323V90.667h81.259v219.418
	C386.582,382.088,328.004,440.667,256,440.667z"/>
<path style="fill:#FFAA20;" d="M386.58,90.667v219.42c0,72-58.58,130.58-130.58,130.58v-81.26c27.2,0,49.32-22.13,49.32-49.32
	V90.667H386.58z"/>
<rect x="125.42" y="85.33" style="fill:#FFFFFF;" width="81.26" height="55.833"/>
<rect x="305.32" y="85.33" style="fill:#FFF5CB;" width="81.26" height="55.833"/>
<g>
</g>
<g>
</g>
<g>
</g>
<g>
</g>
<g>
</g>
<g>
</g>
<g>
</g>
<g>
</g>
<g>
</g>
<g>
</g>
<g>
</g>
<g>
</g>
<g>
</g>
<g>
</g>
<g>
</g>
</svg>
