<?xml version="1.0" encoding="iso-8859-1"?>
<!-- Generator: Adobe Illustrator 19.0.0, SVG Export Plug-In . SVG Version: 6.00 Build 0)  -->
<svg version="1.1" id="Capa_1" xmlns="http://www.w3.org/2000/svg" xmlns:xlink="http://www.w3.org/1999/xlink" x="0px" y="0px"
	 viewBox="0 0 512 512" style="enable-background:new 0 0 512 512;" xml:space="preserve">
<circle style="fill:#A3D9F6;" cx="256" cy="256" r="256"/>
<path style="fill:#00ACEA;" d="M512,256c0-25.995-3.888-51.08-11.091-74.719l-62.315-62.315H73.406v16.121l22.596,22.311V365.74
	H73.406v25.295l110.721,110.721C206.931,508.414,231.045,512,256,512C397.385,512,512,397.385,512,256z"/>
<rect x="160.84" y="134.16" style="fill:#9CFDFF;" width="10.353" height="147.99"/>
<circle style="fill:#FFFFFF;" cx="166.01" cy="303.89" r="24.953"/>
<rect x="220.83" y="134.16" style="fill:#9CFDFF;" width="10.353" height="147.99"/>
<circle style="fill:#FFFFFF;" cx="226" cy="303.89" r="24.953"/>
<rect x="280.82" y="134.16" style="fill:#54FBFF;" width="10.353" height="147.99"/>
<circle style="fill:#FFF5CB;" cx="286" cy="303.89" r="24.953"/>
<rect x="337.222" y="131.862" transform="matrix(-0.996 0.0894 -0.0894 -0.996 701.9355 382.6657)" style="fill:#54FBFF;" width="10.353" height="150.381"/>
<circle style="fill:#FFF5CB;" cx="351.06" cy="303.6" r="24.953"/>
<rect x="96" y="131.37" style="fill:#4A5BE5;" width="19.871" height="239.96"/>
<rect x="396.13" y="131.37" style="fill:#1C2EDE;" width="19.871" height="239.96"/>
<rect x="73.41" y="365.74" style="fill:#FF127F;" width="365.19" height="25.295"/>
<rect x="256" y="365.74" style="fill:#B10853;" width="182.59" height="25.29"/>
<rect x="73.41" y="118.97" style="fill:#FF127F;" width="365.19" height="16.12"/>
<rect x="256" y="118.97" style="fill:#B10853;" width="182.59" height="16.12"/>
<g>
</g>
<g>
</g>
<g>
</g>
<g>
</g>
<g>
</g>
<g>
</g>
<g>
</g>
<g>
</g>
<g>
</g>
<g>
</g>
<g>
</g>
<g>
</g>
<g>
</g>
<g>
</g>
<g>
</g>
</svg>
