<?xml version="1.0" encoding="iso-8859-1"?>
<!-- Generator: Adobe Illustrator 19.0.0, SVG Export Plug-In . SVG Version: 6.00 Build 0)  -->
<svg version="1.1" id="Capa_1" xmlns="http://www.w3.org/2000/svg" xmlns:xlink="http://www.w3.org/1999/xlink" x="0px" y="0px"
	 viewBox="0 0 512 512" style="enable-background:new 0 0 512 512;" xml:space="preserve">
<circle style="fill:#6D76E7;" cx="256" cy="256" r="256"/>
<path style="fill:#1C2EDE;" d="M512,256c0-0.627-0.019-1.249-0.024-1.874L356.449,98.599c-10.706-11.362-19.02-17.72-19.02-17.72
	s-63.008,48.159-65.507,116.411c-0.392,10.705,1.024,19.764,3.668,27.44l-58.567-58.606c-13.376-13.516-23.132-20.976-23.132-20.976
	s-94.893,72.53-98.657,175.32c-1.223,33.402,9.202,56.198,23.686,71.758c0,0,78.174,78.255,119.141,119.138
	C243.989,511.775,249.968,512,256,512C397.385,512,512,397.385,512,256z"/>
<path style="fill:#9CFDFF;" d="M292.548,320.469c-3.763-102.79-98.656-175.32-98.656-175.32s-94.893,72.53-98.656,175.32
	c-1.845,50.398,22.819,76.669,47.944,90.341c31.702,17.25,69.722,17.25,101.424,0C269.729,397.138,294.393,370.867,292.548,320.469z
	"/>
<path style="fill:#00E8F2;" d="M244.601,410.806c-15.855,8.629-33.282,12.944-50.71,12.944V145.151
	c0,0,94.896,72.525,98.654,175.315C294.392,370.87,269.73,397.136,244.601,410.806z"/>
<path style="fill:#9CFDFF;" d="M402.936,197.29c-2.499-68.252-65.507-116.411-65.507-116.411s-63.008,48.159-65.507,116.411
	c-1.225,33.464,15.152,50.908,31.835,59.986c21.05,11.454,46.295,11.454,67.345,0C387.784,248.198,404.161,230.754,402.936,197.29z"
	/>
<path style="fill:#00E8F2;" d="M371.1,257.273c-10.528,5.73-22.099,8.595-33.671,8.595V80.88c0,0,63.01,48.156,65.505,116.408
	C404.16,230.756,387.785,248.197,371.1,257.273z"/>
<g>
</g>
<g>
</g>
<g>
</g>
<g>
</g>
<g>
</g>
<g>
</g>
<g>
</g>
<g>
</g>
<g>
</g>
<g>
</g>
<g>
</g>
<g>
</g>
<g>
</g>
<g>
</g>
<g>
</g>
</svg>
