<?xml version="1.0" encoding="iso-8859-1"?>
<!-- Generator: Adobe Illustrator 19.0.0, SVG Export Plug-In . SVG Version: 6.00 Build 0)  -->
<svg version="1.1" id="Capa_1" xmlns="http://www.w3.org/2000/svg" xmlns:xlink="http://www.w3.org/1999/xlink" x="0px" y="0px"
	 viewBox="0 0 512 512" style="enable-background:new 0 0 512 512;" xml:space="preserve">
<circle style="fill:#9CFDFF;" cx="256" cy="256" r="256"/>
<path style="fill:#00D9E0;" d="M512,256c0-16.602-1.599-32.828-4.618-48.549L374.44,74.509h-43.603v24.518H206.333l-25.17-24.518
	H137.56v83.6c0,32.37,12.927,61.767,33.88,83.33l15.589,15.607c-29.95,21.774-49.469,57.065-49.469,96.845v83.6l69.891,69.891
	C223.172,510.401,239.398,512,256,512C397.385,512,512,397.385,512,256z"/>
<rect x="163.34" y="99.03" style="fill:#6D76E7;" width="185.31" height="17.441"/>
<rect x="256" y="99.03" style="fill:#1C2EDE;" width="92.66" height="17.44"/>
<rect x="163.34" y="141" style="fill:#6D76E7;" width="185.31" height="17.441"/>
<rect x="256" y="141" style="fill:#1C2EDE;" width="92.66" height="17.44"/>
<rect x="163.34" y="182.96" style="fill:#6D76E7;" width="185.31" height="17.441"/>
<rect x="256" y="182.96" style="fill:#1C2EDE;" width="92.66" height="17.45"/>
<rect x="163.34" y="311.6" style="fill:#6D76E7;" width="185.31" height="17.441"/>
<rect x="256" y="311.59" style="fill:#1C2EDE;" width="92.66" height="17.45"/>
<rect x="163.34" y="353.56" style="fill:#6D76E7;" width="185.31" height="17.441"/>
<rect x="256" y="353.56" style="fill:#1C2EDE;" width="92.66" height="17.44"/>
<rect x="163.34" y="395.53" style="fill:#6D76E7;" width="185.31" height="17.441"/>
<rect x="256" y="395.53" style="fill:#1C2EDE;" width="92.66" height="17.44"/>
<path style="fill:#FF127F;" d="M181.163,74.509v83.6c0,41.956,34.133,76.089,76.089,76.089v0.032
	c64.846,1.339,117.188,54.5,117.188,119.66v83.6h-43.603v-83.6c0-41.956-34.134-76.089-76.089-76.089v-0.032
	c-64.846-1.339-117.188-54.5-117.188-119.661v-83.6L181.163,74.509L181.163,74.509z"/>
<path style="fill:#C50A5B;" d="M374.44,353.89v83.6h-43.6v-83.6c0-41.54-33.46-75.41-74.84-76.08v-43.62
	c0.41,0.01,0.83,0.01,1.25,0.01v0.03C322.1,235.57,374.44,288.73,374.44,353.89z"/>
<path style="fill:#FF52A1;" d="M330.837,74.509v83.6c0,41.956-34.134,76.089-76.089,76.089v0.032
	c-64.846,1.339-117.188,54.5-117.188,119.66v83.6h43.604v-83.6c0-41.956,34.133-76.089,76.089-76.089v-0.032
	c64.846-1.339,117.188-54.5,117.188-119.661v-83.6L330.837,74.509L330.837,74.509z"/>
<path style="fill:#FF127F;" d="M374.44,74.51v83.6c0,65.16-52.34,118.32-117.19,119.66v0.03c-0.42,0-0.84,0-1.25,0.01v-43.62
	c41.38-0.67,74.84-34.55,74.84-76.08v-83.6L374.44,74.51L374.44,74.51z"/>
<g>
</g>
<g>
</g>
<g>
</g>
<g>
</g>
<g>
</g>
<g>
</g>
<g>
</g>
<g>
</g>
<g>
</g>
<g>
</g>
<g>
</g>
<g>
</g>
<g>
</g>
<g>
</g>
<g>
</g>
</svg>
