<?xml version="1.0" encoding="iso-8859-1"?>
<!-- Generator: Adobe Illustrator 19.0.0, SVG Export Plug-In . SVG Version: 6.00 Build 0)  -->
<svg version="1.1" id="Capa_1" xmlns="http://www.w3.org/2000/svg" xmlns:xlink="http://www.w3.org/1999/xlink" x="0px" y="0px"
	 viewBox="0 0 512 512" style="enable-background:new 0 0 512 512;" xml:space="preserve">
<circle style="fill:#FFAA20;" cx="256" cy="256" r="256"/>
<path style="fill:#E67500;" d="M511.941,260.664L349.476,98.426c-5.737-6.132-13.901-9.965-22.961-9.965
	c-14.699,0-27.04,10.089-30.482,23.719H152.584l-13.701-13.765c-5.735-6.124-13.889-9.953-22.942-9.953
	c-17.365,0-31.441,14.077-31.441,31.441c0,7.997,2.988,15.292,7.907,20.839l15.812,15.804v135.525
	c-13.63,3.443-23.719,15.783-23.719,30.483c0,9.171,3.928,17.424,10.192,23.171c0,0,104.596,104.621,166.247,166.213
	C398.49,509.333,509.481,398.251,511.941,260.664z"/>
<rect x="108.22" y="134.11" style="fill:#9CFDFF;" width="15.445" height="178.44"/>
<rect x="318.79" y="134.11" style="fill:#00E8F2;" width="15.445" height="178.44"/>
<rect x="130.56" y="112.18" style="fill:#9CFDFF;" width="178.44" height="15.445"/>
<rect x="219.78" y="112.18" style="fill:#00E8F2;" width="89.21" height="15.45"/>
<circle style="fill:#FF127F;" cx="115.94" cy="119.9" r="31.441"/>
<circle style="fill:#B10853;" cx="326.51" cy="119.9" r="31.441"/>
<rect x="130.56" y="314.83" style="fill:#9CFDFF;" width="178.44" height="15.445"/>
<rect x="219.78" y="314.83" style="fill:#00E8F2;" width="89.21" height="15.44"/>
<circle style="fill:#FF127F;" cx="115.94" cy="322.55" r="31.441"/>
<circle style="fill:#B10853;" cx="326.51" cy="322.55" r="31.441"/>
<rect x="177.76" y="203.65" style="fill:#FFFFFF;" width="15.445" height="178.44"/>
<rect x="388.34" y="203.65" style="fill:#54FBFF;" width="15.445" height="178.44"/>
<rect x="200.1" y="181.72" style="fill:#FFFFFF;" width="178.44" height="15.445"/>
<circle style="fill:#4B5BE5;" cx="185.49" cy="189.45" r="31.441"/>
<rect x="200.1" y="384.37" style="fill:#FFFFFF;" width="178.44" height="15.445"/>
<rect x="289.32" y="384.37" style="fill:#9CFDFF;" width="89.22" height="15.45"/>
<circle style="fill:#4B5BE5;" cx="185.49" cy="392.1" r="31.441"/>
<circle style="fill:#1C2EDE;" cx="396.06" cy="392.1" r="31.441"/>
<rect x="289.32" y="181.72" style="fill:#9CFDFF;" width="89.22" height="15.45"/>
<circle style="fill:#1C2EDE;" cx="396.06" cy="189.45" r="31.441"/>
<g>
</g>
<g>
</g>
<g>
</g>
<g>
</g>
<g>
</g>
<g>
</g>
<g>
</g>
<g>
</g>
<g>
</g>
<g>
</g>
<g>
</g>
<g>
</g>
<g>
</g>
<g>
</g>
<g>
</g>
</svg>
