<?xml version="1.0" encoding="iso-8859-1"?>
<!-- Generator: Adobe Illustrator 19.0.0, SVG Export Plug-In . SVG Version: 6.00 Build 0)  -->
<svg version="1.1" id="Capa_1" xmlns="http://www.w3.org/2000/svg" xmlns:xlink="http://www.w3.org/1999/xlink" x="0px" y="0px"
	 viewBox="0 0 512 512" style="enable-background:new 0 0 512 512;" xml:space="preserve">
<circle style="fill:#A3D9F6;" cx="256" cy="256" r="256"/>
<path style="fill:#00ACEA;" d="M512,256c0-8.974-0.466-17.838-1.367-26.574L401.998,120.791
	C365.65,81.562,313.698,56.998,256,56.998C146.094,56.998,56.998,146.094,56.998,256c0,57.698,24.564,109.65,63.793,145.998
	l108.635,108.635c8.736,0.901,17.6,1.367,26.574,1.367C397.385,512,512,397.385,512,256z"/>
<circle style="fill:#78777F;" cx="256" cy="256" r="199"/>
<path style="fill:#2A2A2C;" d="M455,256c0,109.911-89.089,199-199,199V57C365.911,57,455,146.089,455,256z"/>
<circle style="fill:#FFE047;" cx="256" cy="256" r="169.38"/>
<path style="fill:#FEC000;" d="M425.376,256c0,93.547-75.829,169.376-169.376,169.376V86.624
	C349.547,86.624,425.376,162.453,425.376,256z"/>
<circle style="fill:#78777F;" cx="256" cy="256" r="36.11"/>
<path style="fill:#2A2A2C;" d="M292.109,256c0,19.942-16.167,36.109-36.109,36.109V219.89
	C275.942,219.891,292.109,236.058,292.109,256z"/>
<path style="fill:#78777F;" d="M286.572,209.867l50.589-77.254c-23.312-15.297-51.194-24.203-81.16-24.203
	s-57.848,8.906-81.161,24.203l50.589,77.254c8.76-5.817,19.268-9.213,30.572-9.213C267.305,200.654,277.811,204.05,286.572,209.867z
	"/>
<path style="fill:#2A2A2C;" d="M337.156,132.612l-50.58,77.256c-8.761-5.813-19.27-9.216-30.576-9.216v-92.244
	C285.965,108.408,313.852,117.313,337.156,132.612z"/>
<path style="fill:#78777F;" d="M200.654,256c0-1.494,0.076-2.969,0.193-4.433l-92.385-8.348c-0.392,4.393-0.604,8.838-0.604,13.333
	c0,56.005,31.081,104.745,76.931,129.929l44.839-81.81C212.37,295.3,200.654,277.018,200.654,256z"/>
<path style="fill:#2A2A2C;" d="M403.539,243.22l-92.385,8.348c0.116,1.464,0.192,2.939,0.192,4.432
	c0,21.017-11.715,39.299-28.972,48.67l44.839,81.81c45.849-25.184,76.929-73.924,76.929-129.927
	C404.143,252.058,403.931,247.613,403.539,243.22z"/>
<g>
</g>
<g>
</g>
<g>
</g>
<g>
</g>
<g>
</g>
<g>
</g>
<g>
</g>
<g>
</g>
<g>
</g>
<g>
</g>
<g>
</g>
<g>
</g>
<g>
</g>
<g>
</g>
<g>
</g>
</svg>
