<?xml version="1.0" encoding="iso-8859-1"?>
<!-- Generator: Adobe Illustrator 19.0.0, SVG Export Plug-In . SVG Version: 6.00 Build 0)  -->
<svg version="1.1" id="Capa_1" xmlns="http://www.w3.org/2000/svg" xmlns:xlink="http://www.w3.org/1999/xlink" x="0px" y="0px"
	 viewBox="0 0 512 512" style="enable-background:new 0 0 512 512;" xml:space="preserve">
<circle style="fill:#9CFDFF;" cx="256" cy="256" r="256"/>
<path style="fill:#00D9E0;" d="M512,256c0-0.763-0.022-1.52-0.029-2.282L356.292,97.697c-10.616-11.222-25.428-18.194-41.823-18.194
	c-24.978,0-46.287,16.174-54.662,38.923l-21.543-21.854c-10.528-10.562-24.891-17.07-40.732-17.07
	c-32.291,0-58.469,27.02-58.469,60.351c0,1.717,0.086,3.413,0.223,5.094c-32.959,2.345-58.995,30.665-58.995,65.281
	c0,17.82,6.908,33.968,18.1,45.771c-11.192,11.804-18.1,27.951-18.1,45.772c0,18.009,7.05,34.312,18.454,46.141l43.327,43.337
	c3.102,9.598,8.473,18.119,15.459,24.89l96.134,95.831c0.779,0.007,1.555,0.029,2.336,0.029C397.385,512,512,397.385,512,256z"/>
<path style="fill:#FF127F;" d="M197.531,79.503c-32.291,0-58.469,27.02-58.469,60.351c0,1.717,0.086,3.413,0.223,5.094
	c-32.959,2.345-58.995,30.665-58.995,65.281c0,17.82,6.908,33.968,18.1,45.771c-11.192,11.803-18.1,27.951-18.1,45.771
	c0,34.615,26.036,62.936,58.995,65.281c-0.136,1.681-0.223,3.377-0.223,5.094c0,33.33,26.177,60.35,58.469,60.35
	c32.291,0,58.469-27.02,58.469-60.35V139.854C256,106.523,229.823,79.503,197.531,79.503z"/>
<path style="fill:#C50A5B;" d="M314.469,79.503c32.291,0,58.469,27.02,58.469,60.351c0,1.717-0.086,3.413-0.223,5.094
	c32.959,2.345,58.995,30.665,58.995,65.281c0,17.82-6.908,33.968-18.1,45.771c11.192,11.803,18.1,27.951,18.1,45.771
	c0,34.615-26.036,62.936-58.995,65.281c0.136,1.681,0.223,3.377,0.223,5.094c0,33.33-26.177,60.35-58.469,60.35
	c-32.291,0-58.469-27.02-58.469-60.35V139.854C256,106.523,282.177,79.503,314.469,79.503z"/>
<g>
	<rect x="205.97" y="167" style="fill:#FFFFFF;" width="13.645" height="31.691"/>
	<rect x="234.61" y="167" style="fill:#FFFFFF;" width="13.645" height="31.691"/>
</g>
<g>
	<rect x="263.25" y="167" style="fill:#FFF5CB;" width="13.645" height="31.691"/>
	<rect x="291.89" y="167" style="fill:#FFF5CB;" width="13.645" height="31.691"/>
</g>
<g>
	<rect x="205.97" y="313.81" style="fill:#FFFFFF;" width="13.645" height="31.691"/>
	<rect x="234.61" y="313.81" style="fill:#FFFFFF;" width="13.645" height="31.691"/>
</g>
<g>
	<rect x="263.25" y="313.81" style="fill:#FFF5CB;" width="13.645" height="31.691"/>
	<rect x="291.89" y="313.81" style="fill:#FFF5CB;" width="13.645" height="31.691"/>
	<rect x="319.47" y="206.47" style="fill:#FFF5CB;" width="31.691" height="13.645"/>
	<rect x="319.47" y="235.11" style="fill:#FFF5CB;" width="31.691" height="13.645"/>
	<rect x="319.47" y="263.75" style="fill:#FFF5CB;" width="31.691" height="13.645"/>
	<rect x="319.47" y="292.39" style="fill:#FFF5CB;" width="31.691" height="13.645"/>
</g>
<g>
	<rect x="160.34" y="206.47" style="fill:#FFFFFF;" width="31.691" height="13.645"/>
	<rect x="160.34" y="235.11" style="fill:#FFFFFF;" width="31.691" height="13.645"/>
	<rect x="160.34" y="263.75" style="fill:#FFFFFF;" width="31.691" height="13.645"/>
	<rect x="160.34" y="292.39" style="fill:#FFFFFF;" width="31.691" height="13.645"/>
</g>
<path style="fill:#FFE670;" d="M314.459,318.789H197.041c-7.654,0-13.917-6.262-13.917-13.917v-97.245
	c0-7.654,6.262-13.917,13.917-13.917h117.418c7.654,0,13.917,6.262,13.917,13.917v97.245
	C328.376,312.527,322.113,318.789,314.459,318.789z"/>
<path style="fill:#FEC000;" d="M328.38,207.63v97.24c0,7.66-6.27,13.92-13.92,13.92H256V193.71h58.46
	C322.11,193.71,328.38,199.97,328.38,207.63z"/>
<rect x="201.17" y="211.18" style="fill:#4B5BE5;" width="109.16" height="90.14"/>
<rect x="256" y="211.18" style="fill:#1C2EDE;" width="54.33" height="90.14"/>
<g>
</g>
<g>
</g>
<g>
</g>
<g>
</g>
<g>
</g>
<g>
</g>
<g>
</g>
<g>
</g>
<g>
</g>
<g>
</g>
<g>
</g>
<g>
</g>
<g>
</g>
<g>
</g>
<g>
</g>
</svg>
