<?xml version="1.0" encoding="iso-8859-1"?>
<!-- Generator: Adobe Illustrator 19.0.0, SVG Export Plug-In . SVG Version: 6.00 Build 0)  -->
<svg version="1.1" id="Capa_1" xmlns="http://www.w3.org/2000/svg" xmlns:xlink="http://www.w3.org/1999/xlink" x="0px" y="0px"
	 viewBox="0 0 512 512" style="enable-background:new 0 0 512 512;" xml:space="preserve">
<circle style="fill:#FF127F;" cx="256" cy="256" r="256"/>
<path style="fill:#B10853;" d="M512,256c0-3.413-0.087-6.806-0.22-10.187L373.865,107.898C344.15,75.919,301.598,56,256,56
	c-101.53,0-188.004,98.712-151.128,209.579c20.116,60.477,56.057,110.442,88.499,143.371l100.325,100.28
	C417.207,491.002,512,384.577,512,256z"/>
<path style="fill:#54FBFF;" d="M256,56c-101.53,0-188.004,98.712-151.128,209.579C141.749,376.447,231.814,452,256,452
	s114.251-75.553,151.128-186.421C444.004,154.712,357.53,56,256,56z"/>
<path style="fill:#00D9E0;" d="M407.13,265.58C370.25,376.45,280.19,452,256,452V56C357.53,56,444,154.71,407.13,265.58z"/>
<path style="fill:#4B5BE5;" d="M135.297,208.316c0.494,29.426,10.353,85.754,79.775,77.379c8.113-0.979,14.485-7.351,15.464-15.464
	c8.375-69.421-47.953-79.281-77.379-79.775C143.228,190.29,135.13,198.387,135.297,208.316z"/>
<path style="fill:#1C2EDE;" d="M376.703,208.316c-0.494,29.426-10.353,85.754-79.775,77.379
	c-8.113-0.979-14.485-7.351-15.464-15.464c-8.375-69.421,47.953-79.281,77.379-79.775
	C368.772,190.29,376.87,198.387,376.703,208.316z"/>
<ellipse style="fill:#4B5BE5;" cx="241.85" cy="330.6" rx="8.349" ry="15.271"/>
<ellipse style="fill:#1C2EDE;" cx="270.14" cy="330.6" rx="8.349" ry="15.271"/>
<g>
</g>
<g>
</g>
<g>
</g>
<g>
</g>
<g>
</g>
<g>
</g>
<g>
</g>
<g>
</g>
<g>
</g>
<g>
</g>
<g>
</g>
<g>
</g>
<g>
</g>
<g>
</g>
<g>
</g>
</svg>
