<?xml version="1.0" encoding="iso-8859-1"?>
<!-- Generator: Adobe Illustrator 19.0.0, SVG Export Plug-In . SVG Version: 6.00 Build 0)  -->
<svg version="1.1" id="Capa_1" xmlns="http://www.w3.org/2000/svg" xmlns:xlink="http://www.w3.org/1999/xlink" x="0px" y="0px"
	 viewBox="0 0 512 512" style="enable-background:new 0 0 512 512;" xml:space="preserve">
<circle style="fill:#FFDBA9;" cx="256" cy="256" r="256"/>
<path style="fill:#FFB74F;" d="M510.92,279.455L308.662,77.004C295.544,62.859,276.813,53.995,256,53.995
	c-39.671,0-71.831,32.16-71.831,71.831c0,17.135,6.009,32.862,16.023,45.208l-57.848,85.289c-5.283-1.238-10.783-1.913-16.444-1.913
	c-39.671,0-71.831,32.16-71.831,71.831c0,20.375,8.494,38.755,22.123,51.826l129.077,128.897C221.668,510.261,238.63,512,256,512
	C389.476,512,499.074,409.844,510.92,279.455z"/>
<rect x="177.37" y="310.69" style="fill:#FFFFFF;" width="157.25" height="31.09"/>
<rect x="256" y="310.69" style="fill:#9CFDFF;" width="78.63" height="31.1"/>
<rect x="106.974" y="204.681" transform="matrix(-0.5613 0.8276 -0.8276 -0.5613 472.0363 190.2367)" style="fill:#FFFFFF;" width="157.248" height="31.09"/>
<rect x="247.757" y="204.674" transform="matrix(-0.5613 -0.8276 0.8276 -0.5613 327.3269 613.9447)" style="fill:#9CFDFF;" width="157.248" height="31.09"/>
<circle style="fill:#FF127F;" cx="125.9" cy="326.24" r="71.831"/>
<path style="fill:#B10853;" d="M197.733,326.24c0,39.67-32.164,71.834-71.834,71.834V254.406
	C165.569,254.406,197.733,286.569,197.733,326.24z"/>
<circle style="fill:#4B5BE5;" cx="386.1" cy="326.24" r="71.831"/>
<path style="fill:#1C2EDE;" d="M457.93,326.24c0,39.67-32.164,71.834-71.834,71.834V254.406
	C425.767,254.406,457.93,286.569,457.93,326.24z"/>
<circle style="fill:#FFAA20;" cx="256" cy="125.83" r="71.831"/>
<path style="fill:#E67500;" d="M327.834,125.824c0,39.67-32.164,71.834-71.834,71.834V54C295.67,54,327.834,86.154,327.834,125.824z
	"/>
<g>
</g>
<g>
</g>
<g>
</g>
<g>
</g>
<g>
</g>
<g>
</g>
<g>
</g>
<g>
</g>
<g>
</g>
<g>
</g>
<g>
</g>
<g>
</g>
<g>
</g>
<g>
</g>
<g>
</g>
</svg>
