<?xml version="1.0" encoding="iso-8859-1"?>
<!-- Generator: Adobe Illustrator 19.0.0, SVG Export Plug-In . SVG Version: 6.00 Build 0)  -->
<svg version="1.1" id="Capa_1" xmlns="http://www.w3.org/2000/svg" xmlns:xlink="http://www.w3.org/1999/xlink" x="0px" y="0px"
	 viewBox="0 0 512 512" style="enable-background:new 0 0 512 512;" xml:space="preserve">
<circle style="fill:#4B5BE5;" cx="256" cy="256" r="256"/>
<path style="fill:#1C2EDE;" d="M510.358,284.976L270.964,45.583c-2.753-2.876-6.629-4.667-10.924-4.667
	c-8.353,0-15.124,6.771-15.124,15.124c0,3.797,1.4,7.267,3.711,9.922l20.434,20.251c-3.55,4.353-5.682,9.909-5.682,15.964
	c0,6.894,2.762,13.139,7.238,17.698l21.966,21.625h-26.739l-14.113-14.738c-2.748-2.835-6.596-4.597-10.856-4.597
	c-8.353,0-15.124,6.771-15.124,15.124c0,1.463,0.219,2.873,0.606,4.211h-35.68v41.37l18.352,18.776v70.872l-77.908,98.006
	c-5.308,6.678-8.245,15.34-8.245,24.319l0,0c0,11.098,4.396,21.034,11.326,27.706l87.331,87.134C232.809,511.2,244.31,512,256,512
	C387.586,512,495.965,412.716,510.358,284.976z"/>
<circle style="fill:#FF90C2;" cx="240.88" cy="137.29" r="15.12"/>
<path style="fill:#FFFFFF;" d="M302.969,272.518V169.936h-93.938v102.582l-77.908,98.006c-5.308,6.678-8.245,15.34-8.245,24.319l0,0
	c0,20.091,14.402,36.377,32.167,36.377h201.911c17.765,0,32.167-16.286,32.167-36.377l0,0c0-8.979-2.937-17.642-8.245-24.319
	L302.969,272.518z"/>
<path style="fill:#FFF5CB;" d="M389.12,394.84c0,20.09-14.4,36.38-32.16,36.38H256V169.94h46.97v102.58l77.91,98
	c2.66,3.34,4.72,7.18,6.11,11.3C388.39,385.94,389.12,390.35,389.12,394.84z"/>
<rect x="190.68" y="141.5" style="fill:#9CFDFF;" width="130.64" height="41.37"/>
<rect x="256" y="141.5" style="fill:#00D9E0;" width="65.32" height="41.37"/>
<path style="fill:#FF127F;" d="M149.847,375.113c-2.165,3.933-5.097,9.475-5.097,14.856c0,13.364,10.834,24.198,24.197,24.198
	h174.105c13.364,0,24.198-10.834,24.198-24.198c0-5.381-2.933-10.922-5.097-14.856c-1.192-2.166-44.996-59.895-65.802-87.28h-80.703
	C194.843,315.218,151.039,372.947,149.847,375.113z"/>
<circle style="fill:#FF90C2;" cx="247.91" cy="243.7" r="21.5"/>
<g>
	<path style="fill:#FF73AF;" d="M269.41,243.7c0,9.01-5.54,16.73-13.41,19.92v-39.84C263.87,226.97,269.41,234.69,269.41,243.7z"/>
	<circle style="fill:#FF73AF;" cx="288.66" cy="102.18" r="25.279"/>
	<circle style="fill:#FF73AF;" cx="279.5" cy="204.45" r="11.747"/>
</g>
<circle style="fill:#FF90C2;" cx="260.04" cy="56.04" r="15.12"/>
<path style="fill:#B10853;" d="M367.25,389.97c0,13.36-10.83,24.2-24.2,24.2H256V287.83h40.35c20.81,27.39,64.61,85.12,65.8,87.28
	C364.32,379.05,367.25,384.59,367.25,389.97z"/>
<path style="fill:#FF73AF;" d="M275.16,56.04c0,8.35-6.77,15.12-15.12,15.12c-1.4,0-2.76-0.19-4.04-0.55V41.47
	c1.28-0.36,2.64-0.55,4.04-0.55C268.39,40.92,275.16,47.69,275.16,56.04z"/>
<g>
</g>
<g>
</g>
<g>
</g>
<g>
</g>
<g>
</g>
<g>
</g>
<g>
</g>
<g>
</g>
<g>
</g>
<g>
</g>
<g>
</g>
<g>
</g>
<g>
</g>
<g>
</g>
<g>
</g>
</svg>
