<?xml version="1.0" encoding="iso-8859-1"?>
<!-- Generator: Adobe Illustrator 19.0.0, SVG Export Plug-In . SVG Version: 6.00 Build 0)  -->
<svg version="1.1" id="Capa_1" xmlns="http://www.w3.org/2000/svg" xmlns:xlink="http://www.w3.org/1999/xlink" x="0px" y="0px"
	 viewBox="0 0 512 512" style="enable-background:new 0 0 512 512;" xml:space="preserve">
<circle style="fill:#FFAA20;" cx="256" cy="256" r="256"/>
<path style="fill:#E67500;" d="M512,256c0-19.992-2.295-39.448-6.63-58.121l-97.494-97.494c-54.023-54.023-141.61-54.023-195.633,0
	c-45.822,45.822-52.77,115.789-20.859,168.943l-89.512,89.512c-13.13,13.13-13.13,34.419,0,47.549l0,0
	c0,0,53.252,53.252,99.819,99.819C219.197,509.99,237.362,512,256,512C397.385,512,512,397.385,512,256z"/>
<path style="fill:#FFFFFF;" d="M101.872,406.388L101.872,406.388c-13.13-13.13-13.13-34.419,0-47.549l94.293-94.293l47.549,47.549
	l-94.293,94.293C136.29,419.519,115.002,419.519,101.872,406.388z"/>
<path style="fill:#FFF5CB;" d="M243.71,312.096l-94.293,94.293c-13.131,13.131-34.415,13.131-47.546,0l118.066-118.066
	L243.71,312.096z"/>
<circle style="fill:#FF127F;" cx="310.06" cy="198.2" r="138.33"/>
<path style="fill:#1C2EDE;" d="M407.872,296.017c-45.821,45.82-115.796,52.778-168.942,20.86
	c-9.511-5.706-18.484-12.657-26.686-20.86l195.635-195.635C461.902,154.404,461.895,241.993,407.872,296.017z"/>
<circle style="fill:#54FBFF;" cx="310.06" cy="198.2" r="103.78"/>
<path style="fill:#00D9E0;" d="M383.441,271.586c-40.531,40.531-106.236,40.531-146.767,0l146.767-146.767
	C423.973,165.35,423.973,231.055,383.441,271.586z"/>
<rect x="154.258" y="308.374" transform="matrix(-0.7071 -0.7071 0.7071 -0.7071 94.1972 679.7661)" style="fill:#54FBFF;" width="67.249" height="24"/>
<rect x="187.769" y="315.454" transform="matrix(-0.7071 0.7071 -0.7071 -0.7071 575.9719 425.952)" style="fill:#00D9E0;" width="24" height="33.62"/>
<g>
</g>
<g>
</g>
<g>
</g>
<g>
</g>
<g>
</g>
<g>
</g>
<g>
</g>
<g>
</g>
<g>
</g>
<g>
</g>
<g>
</g>
<g>
</g>
<g>
</g>
<g>
</g>
<g>
</g>
</svg>
