<?xml version="1.0" encoding="iso-8859-1"?>
<!-- Generator: Adobe Illustrator 19.0.0, SVG Export Plug-In . SVG Version: 6.00 Build 0)  -->
<svg version="1.1" id="Capa_1" xmlns="http://www.w3.org/2000/svg" xmlns:xlink="http://www.w3.org/1999/xlink" x="0px" y="0px"
	 viewBox="0 0 512 512" style="enable-background:new 0 0 512 512;" xml:space="preserve">
<circle style="fill:#FF127F;" cx="256" cy="256" r="256"/>
<path style="fill:#B10853;" d="M512,256c0-16.113-1.505-31.873-4.352-47.16L396.893,97.842
	c-56.568-58.399-139.944-10.038-141.796-9.31c-1.903-0.748-89.91-51.823-146.433,14.385l25.221,25.301
	c-28.626,16.32-65.147,46.112-72.733,94.282l38.847,38.916c-2.867,8.471-5.105,17.456-6.103,26.574l45.41,44.4
	c-1.815,3.063-3.447,6.413-4.87,10.074l42.689,42.877H162.83c-24.4,0-46.46,14.54-56.08,36.96L93.3,453.64
	c0.645,0.538,1.298,1.058,1.948,1.584c0.565,0.456,1.128,0.915,1.697,1.367c0.974,0.772,1.953,1.538,2.941,2.293
	c0.077,0.059,0.154,0.118,0.231,0.177c1.12,0.855,2.247,1.703,3.378,2.543l-0.007,0.017C146.088,493.269,198.855,512,256,512
	C397.385,512,512,397.385,512,256z"/>
<path style="fill:#FFFFFF;" d="M382.269,208.375l66.774,14.125c-12.841-81.541-108.61-110.433-108.61-110.433l61.098-9.149
	C345.007,36.709,257,87.784,255.097,88.532c-1.903-0.748-89.91-51.823-146.433,14.385l61.098,9.149
	c0,0-95.769,28.892-108.61,110.433l66.774-14.125c0,0-29.535,38.523-34.029,79.615c0,0,39.754,6.298,72.485,20.643
	c-13.453,5.831-25.113,16.255-31.945,33.831c0,0,73.197,21.718,91.496,39.426h29.165h29.164
	c18.299-17.708,91.496-39.426,91.496-39.426c-6.832-17.576-18.492-28-31.945-33.831c32.731-14.345,72.485-20.643,72.485-20.643
	C411.803,246.898,382.269,208.375,382.269,208.375z"/>
<path style="fill:#FFF5CB;" d="M416.3,287.99c0,0-39.76,6.3-72.49,20.64c13.46,5.83,25.12,16.26,31.95,33.83
	c0,0-73.2,21.72-91.5,39.43H256V88.07c9.62-5.05,91.8-48.09,145.53,14.85l-61.1,9.15c0,0,95.77,28.89,108.61,110.43l-66.77-14.13
	C382.27,208.37,411.8,246.9,416.3,287.99z"/>
<rect x="212.82" y="342.5" style="fill:#FFC473;" width="86.36" height="108.95"/>
<rect x="256" y="342.5" style="fill:#FFAA20;" width="43.18" height="108.95"/>
<path style="fill:#FFDBA9;" d="M357.748,211.231c-4.286-63.092-58.092-98.9-102.651-98.9s-98.365,35.808-102.651,98.9
	c-11.53,2.16-19.713,12.936-18.43,24.784l1.986,18.333c1.347,12.437,12.625,21.511,25.062,20.164l2.142-0.232
	c25.46,66.273,66.546,83.335,91.892,87.211c25.346-3.876,66.432-20.939,91.892-87.211l2.142,0.232
	c12.437,1.347,23.715-7.727,25.062-20.164l1.986-18.333C377.461,224.167,369.279,213.391,357.748,211.231z"/>
<g>
	<path style="fill:#FFC473;" d="M376.183,236.016l-1.988,18.337c-1.352,12.436-12.624,21.506-25.061,20.163l-2.149-0.233
		c-25.455,66.273-66.542,83.329-91.889,87.206V112.333c43.952,0,96.902,34.838,102.454,96.339c0.081,0.886,0.143,1.737,0.197,2.561
		C369.28,213.39,377.463,224.17,376.183,236.016z"/>
	<rect x="186.58" y="220.32" style="fill:#FFC473;" width="52.929" height="22.934"/>
</g>
<polygon style="fill:#FFA91F;" points="255.094,220.321 255.094,293.215 278.028,293.215 278.028,243.254 327.988,243.254 
	327.988,220.321 "/>
<path style="fill:#FFDBA9;" d="M415.44,456.29C371.7,491.16,316.28,512,256,512s-115.7-20.84-159.44-55.71
	c1.21-33.84,25.57-62.06,57.64-69.2c0.33-0.07,0.67-0.14,1.01-0.21c0.34-0.07,0.67-0.15,1.01-0.21c0.13-0.03,0.26-0.05,0.38-0.07
	c0.26-0.06,0.54-0.11,0.81-0.16c0.06-0.01,0.11-0.02,0.17-0.03c0.23-0.04,0.46-0.08,0.69-0.1c0.46-0.08,0.91-0.15,1.38-0.22
	c0.08-0.01,0.18-0.03,0.27-0.04c0.11-0.02,0.22-0.03,0.34-0.05c0.26-0.03,0.52-0.07,0.79-0.1c0.04-0.01,0.09-0.01,0.13-0.02
	c0.11-0.01,0.2-0.03,0.31-0.03c0.13-0.02,0.28-0.04,0.42-0.05c0.68-0.08,1.37-0.14,2.06-0.2c0.04,0,0.07-0.01,0.11-0.01
	c0.22-0.02,0.44-0.04,0.67-0.06c0.04,0,0.1-0.01,0.15-0.01c0.39-0.02,0.77-0.05,1.16-0.07c0.66-0.04,1.34-0.07,2.02-0.09
	c0.68-0.01,1.36-0.02,2.05-0.02h171.74c0.58,0,1.16,0.01,1.73,0.02h0.32c0.12,0,0.25,0.01,0.38,0.02c0.07,0,0.15,0,0.23,0.01
	c0.47,0.01,0.94,0.03,1.4,0.06h0.01c0.39,0.02,0.77,0.05,1.16,0.07c0.05,0,0.11,0.01,0.15,0.01c0.23,0.02,0.45,0.04,0.67,0.06
	c0.04,0,0.07,0.01,0.11,0.01c0.7,0.05,1.39,0.11,2.06,0.2c0.14,0.01,0.29,0.03,0.42,0.05c0.11,0,0.2,0.02,0.31,0.03
	c0.04,0.01,0.09,0.01,0.13,0.02c0.27,0.03,0.53,0.07,0.79,0.1c0.12,0.02,0.23,0.03,0.34,0.05c0.08,0.01,0.17,0.02,0.24,0.04h0.03
	c0.7,0.1,1.38,0.21,2.07,0.32c0.06,0.01,0.11,0.02,0.17,0.03c0.27,0.05,0.55,0.1,0.81,0.16c0.42,0.07,0.84,0.16,1.26,0.24
	c0.26,0.06,0.51,0.11,0.76,0.17c0.13,0.02,0.26,0.05,0.38,0.08C389.87,394.23,414.23,422.45,415.44,456.29z"/>
<path style="fill:#FFC473;" d="M415.44,456.29C371.7,491.16,316.28,512,256,512V385.34h85.87c0.58,0,1.16,0.01,1.73,0.02h0.32
	c0.12,0,0.25,0.01,0.38,0.02c0.07,0,0.15,0,0.23,0.01c0.47,0.01,0.94,0.03,1.4,0.06h0.01c0.39,0.02,0.77,0.05,1.16,0.07
	c0.05,0,0.11,0.01,0.15,0.01c0.23,0.02,0.45,0.04,0.67,0.06c0.04,0,0.07,0.01,0.11,0.01c0.7,0.05,1.39,0.11,2.06,0.2
	c0.14,0.01,0.29,0.03,0.42,0.05c0.11,0,0.2,0.02,0.31,0.03c0.04,0.01,0.09,0.01,0.13,0.02c0.27,0.03,0.53,0.07,0.79,0.1
	c0.12,0.02,0.23,0.03,0.34,0.05c0.08,0.01,0.17,0.02,0.24,0.04h0.03c0.7,0.1,1.38,0.21,2.07,0.32c0.06,0.01,0.11,0.02,0.17,0.03
	c0.27,0.05,0.55,0.1,0.81,0.16c0.42,0.07,0.84,0.16,1.26,0.24c0.26,0.06,0.51,0.11,0.76,0.17c0.13,0.02,0.26,0.05,0.38,0.08
	C389.87,394.23,414.23,422.45,415.44,456.29z"/>
<path style="fill:#00D9E0;" d="M325.41,385.34v117.13c-8.82,2.48-17.82,4.5-27,6.03c-8.53,1.42-17.2,2.42-25.99,2.98
	c-5.43,0.35-10.9,0.52-16.42,0.52c-5.52,0-10.99-0.17-16.42-0.52c-8.79-0.56-17.46-1.56-25.99-2.98c-9.18-1.53-18.18-3.55-27-6.03
	V385.34H325.41z"/>
<path style="fill:#00989D;" d="M325.41,385.34v117.13c-8.82,2.48-17.82,4.5-27,6.03c-8.53,1.42-17.2,2.42-25.99,2.98
	c-5.43,0.35-10.9,0.52-16.42,0.52V385.34H325.41z"/>
<path style="fill:#FFFFFF;" d="M239.58,511.48c-8.79-0.56-17.46-1.56-25.99-2.98c-43.77-7.3-83.77-25.7-117.03-52.21
	c-1.09-0.87-2.18-1.75-3.26-2.65l13.45-31.34c9.62-22.42,31.68-36.96,56.08-36.96h42.03L239.58,511.48z"/>
<g>
	<path style="fill:#FFF5CB;" d="M418.7,453.64c-1.08,0.9-2.17,1.78-3.26,2.65c-33.26,26.51-73.26,44.91-117.03,52.21
		c-8.53,1.42-17.2,2.42-25.99,2.98l34.72-126.14h42.03c24.4,0,46.46,14.54,56.08,36.96L418.7,453.64z"/>
	<path style="fill:#FFF5CB;" d="M213.59,508.5l4.48-10.65l-59.25-82.06l46.04-30.45l34.72,126.14
		C230.79,510.92,222.12,509.92,213.59,508.5z"/>
</g>
<path style="fill:#FFDF47;" d="M293.93,497.85l4.48,10.65c-8.53,1.42-17.2,2.42-25.99,2.98l34.72-126.14l46.04,30.45L293.93,497.85z
	"/>
<path style="fill:#FFFFFF;" d="M352.274,155c-21.086-66-97.18-65-97.18-65s-76.094-1-97.18,65l-6.374,56.231L212.141,155l42.952,40
	l42.952-40l60.602,56.231L352.274,155z"/>
<path style="fill:#FFF5CB;" d="M358.65,211.23L298.05,155L256,194.15V90.01c8.68,0.14,76.55,3.25,96.27,64.99L358.65,211.23z"/>
<path style="fill:#FFFFFF;" d="M316.48,316.714c0,0-9.911,0.278-29.949-13.051c-15.054-10.014-26.614-2.631-31.434,1.661
	c-4.82-4.292-16.38-11.675-31.434-1.661c-20.038,13.329-29.949,13.051-29.949,13.051s36.435,23.924,61.383,1.054
	C280.045,340.639,316.48,316.714,316.48,316.714z"/>
<path style="fill:#FFF5CB;" d="M316.48,316.71c0,0-35.57,23.36-60.48,1.86v-14.02c5.26-4.31,16.35-10.32,30.53-0.89
	C306.57,316.99,316.48,316.71,316.48,316.71z"/>
<path style="fill:#49BBEE;" d="M174.908,222.733v39.029c0,11.29,9.152,20.442,20.442,20.442h33.128
	c7.019,0,13.252-4.488,15.478-11.144l5.119-15.306c1.933-5.781,10.11-5.781,12.044,0l5.119,15.306
	c2.226,6.656,8.459,11.144,15.478,11.144h33.128c11.29,0,20.442-9.152,20.442-20.442v-39.029H174.908z"/>
<path style="fill:#009AE5;" d="M335.284,222.732v39.03c0,11.291-9.151,20.442-20.442,20.442h-33.126
	c-7.02,0-13.25-4.49-15.478-11.144l-5.119-15.306c-0.969-2.891-3.495-4.339-6.021-4.339v-28.683L335.284,222.732L335.284,222.732z"
	/>
<path style="fill:#FFFFFF;" d="M314.843,287.239h-33.128c-9.197,0-17.336-5.86-20.253-14.582l-5.119-15.306
	c-0.199-0.595-0.619-0.897-1.247-0.897c-0.628,0-1.048,0.302-1.247,0.898l-5.119,15.306c-2.917,8.722-11.056,14.582-20.253,14.582
	h-33.128c-14.048,0-25.477-11.429-25.477-25.477v-44.064H340.32v44.064C340.32,275.81,328.891,287.239,314.843,287.239z
	 M255.097,246.383c4.979,0,9.218,3.051,10.797,7.773l5.119,15.307c1.542,4.609,5.843,7.706,10.703,7.706h33.128
	c8.495,0,15.407-6.912,15.407-15.407v-33.994H179.943v33.994c0,8.495,6.912,15.407,15.407,15.407h33.128
	c4.86,0,9.161-3.097,10.703-7.706l5.119-15.306C245.879,249.434,250.117,246.383,255.097,246.383z"/>
<path style="fill:#FFF5CB;" d="M255.097,217.697v10.07h75.152v33.995c0,8.497-6.911,15.407-15.407,15.407h-33.126
	c-4.859,0-9.16-3.096-10.704-7.708l-5.119-15.307c-1.578-4.72-5.815-7.771-10.796-7.771v10.07c0.629,0,1.049,0.302,1.246,0.898
	l5.119,15.306c2.916,8.719,11.056,14.581,20.253,14.581h33.126c14.048,0,25.477-11.43,25.477-25.477v-44.065L255.097,217.697
	L255.097,217.697z"/>
<rect x="169.87" y="208.32" style="fill:#3A4DE3;" width="170.45" height="10.947"/>
<rect x="255.1" y="208.32" style="fill:#1C2EDE;" width="85.22" height="10.946"/>
<g>
</g>
<g>
</g>
<g>
</g>
<g>
</g>
<g>
</g>
<g>
</g>
<g>
</g>
<g>
</g>
<g>
</g>
<g>
</g>
<g>
</g>
<g>
</g>
<g>
</g>
<g>
</g>
<g>
</g>
</svg>
