<?xml version="1.0" encoding="iso-8859-1"?>
<!-- Generator: Adobe Illustrator 19.0.0, SVG Export Plug-In . SVG Version: 6.00 Build 0)  -->
<svg version="1.1" id="Capa_1" xmlns="http://www.w3.org/2000/svg" xmlns:xlink="http://www.w3.org/1999/xlink" x="0px" y="0px"
	 viewBox="0 0 512 512" style="enable-background:new 0 0 512 512;" xml:space="preserve">
<circle style="fill:#7FC8F1;" cx="256" cy="256" r="256"/>
<path style="fill:#009AE5;" d="M508.863,296.114L275.25,62.5h-133v265l26.067,25v70.023l89.454,89.454
	C384.712,511.116,489.7,417.874,508.863,296.114z"/>
<path style="fill:#FF127F;" d="M317.5,192.5L317.5,192.5c-23.334,0-42.25-18.916-42.25-42.25V81.5h-133v238h257.5v-44.75
	C399.75,229.325,362.925,192.5,317.5,192.5z"/>
<path style="fill:#B10853;" d="M399.75,274.75v44.75h-191v-238h66.5v68.75c0,23.33,18.92,42.25,42.25,42.25
	C362.93,192.5,399.75,229.32,399.75,274.75z"/>
<path style="fill:#FFF5CB;" d="M331,230.163v-36.541c-4.394-0.726-8.9-1.122-13.5-1.122l0,0c-5.284,0-10.337-0.978-15-2.75v40.413
	H331z"/>
<rect x="142.25" y="281.5" style="fill:#FFFFFF;" width="257.5" height="46"/>
<rect x="208.75" y="281.5" style="fill:#FFF5CB;" width="191" height="46"/>
<circle style="fill:#9CFDFF;" cx="208.75" cy="217.52" r="39.604"/>
<path style="fill:#00D9E0;" d="M248.35,217.52c0,21.87-17.73,39.6-39.6,39.6v-79.21C230.62,177.91,248.35,195.64,248.35,217.52z"/>
<rect x="142.25" y="62.5" style="fill:#9CFDFF;" width="133" height="44.82"/>
<rect x="208.75" y="62.5" style="fill:#00D9E0;" width="66.5" height="44.82"/>
<rect x="168.32" y="343.5" style="fill:#FFFFFF;" width="21.366" height="79.02"/>
<g>
	<rect x="352.32" y="343.5" style="fill:#FFF5CB;" width="21.366" height="79.02"/>
	<rect x="260.32" y="343.5" style="fill:#FFF5CB;" width="21.366" height="54.59"/>
	<rect x="260.32" y="410.78" style="fill:#FFF5CB;" width="21.366" height="27.928"/>
	<rect x="214.32" y="343.5" style="fill:#FFF5CB;" width="21.366" height="25.389"/>
	<rect x="214.32" y="382.22" style="fill:#FFF5CB;" width="21.366" height="67.28"/>
	<rect x="306.32" y="343.5" style="fill:#FFF5CB;" width="21.366" height="25.389"/>
	<rect x="306.32" y="382.22" style="fill:#FFF5CB;" width="21.366" height="67.28"/>
</g>
<g>
</g>
<g>
</g>
<g>
</g>
<g>
</g>
<g>
</g>
<g>
</g>
<g>
</g>
<g>
</g>
<g>
</g>
<g>
</g>
<g>
</g>
<g>
</g>
<g>
</g>
<g>
</g>
<g>
</g>
</svg>
