<?xml version="1.0" encoding="iso-8859-1"?>
<!-- Generator: Adobe Illustrator 19.0.0, SVG Export Plug-In . SVG Version: 6.00 Build 0)  -->
<svg version="1.1" id="Capa_1" xmlns="http://www.w3.org/2000/svg" xmlns:xlink="http://www.w3.org/1999/xlink" x="0px" y="0px"
	 viewBox="0 0 512 512" style="enable-background:new 0 0 512 512;" xml:space="preserve">
<circle style="fill:#4B5BE5;" cx="256" cy="256" r="256"/>
<path style="fill:#1C2EDE;" d="M511.803,265.595l-94.779-94.78h-21.259L270.621,45.046c-3.749-3.73-8.913-6.036-14.621-6.036
	c-11.464,0-20.757,9.293-20.757,20.757c0,5.494,2.138,10.484,5.626,14.193l9.997,9.969l-20.515,86.887H94.977v75.596H54.023v79.207
	l40.953,39.634V409l94.16,94.16C210.453,508.913,232.865,512,256,512C394.171,512,506.754,402.532,511.803,265.595z"/>
<rect x="54.02" y="246.41" style="fill:#FFAA20;" width="55.24" height="79.21"/>
<rect x="402.74" y="246.41" style="fill:#E67500;" width="55.24" height="79.21"/>
<polygon style="fill:#FFFFFF;" points="256,62.188 229.535,174.275 282.465,174.275 "/>
<polygon style="fill:#FFF5CB;" points="282.46,174.28 256,174.28 256,62.19 260.23,80.09 281.64,170.82 "/>
<rect x="94.98" y="170.82" style="fill:#9CFDFF;" width="322.05" height="238.18"/>
<rect x="256" y="170.82" style="fill:#00E8F2;" width="161.02" height="238.18"/>
<circle style="fill:#FF127F;" cx="189.75" cy="257.66" r="49.816"/>
<circle style="fill:#FFFFFF;" cx="189.75" cy="257.66" r="29.06"/>
<circle style="fill:#4B5BE5;" cx="189.75" cy="257.66" r="16.605"/>
<circle style="fill:#C50A5B;" cx="322.25" cy="257.66" r="49.816"/>
<circle style="fill:#FFF5CB;" cx="322.25" cy="257.66" r="29.06"/>
<circle style="fill:#1C2EDE;" cx="322.25" cy="257.66" r="16.605"/>
<rect x="163.38" y="330.64" style="fill:#FFFFFF;" width="185.24" height="37.36"/>
<rect x="256" y="330.64" style="fill:#FFF5CB;" width="92.62" height="37.37"/>
<rect x="201.54" y="330.64" style="fill:#FFAA20;" width="35.606" height="37.36"/>
<rect x="274.86" y="330.64" style="fill:#E67500;" width="35.606" height="37.36"/>
<circle style="fill:#FFAA20;" cx="256" cy="59.767" r="20.757"/>
<path style="fill:#E67500;" d="M276.76,59.77c0,10.01-7.1,18.36-16.53,20.32c-1.36,0.28-2.78,0.43-4.23,0.43V39.01
	C267.46,39.01,276.76,48.3,276.76,59.77z"/>
<g>
</g>
<g>
</g>
<g>
</g>
<g>
</g>
<g>
</g>
<g>
</g>
<g>
</g>
<g>
</g>
<g>
</g>
<g>
</g>
<g>
</g>
<g>
</g>
<g>
</g>
<g>
</g>
<g>
</g>
</svg>
