<?xml version="1.0" encoding="iso-8859-1"?>
<!-- Generator: Adobe Illustrator 19.0.0, SVG Export Plug-In . SVG Version: 6.00 Build 0)  -->
<svg version="1.1" id="Capa_1" xmlns="http://www.w3.org/2000/svg" xmlns:xlink="http://www.w3.org/1999/xlink" x="0px" y="0px"
	 viewBox="0 0 512 512" style="enable-background:new 0 0 512 512;" xml:space="preserve">
<circle style="fill:#54FBFF;" cx="256" cy="256" r="256"/>
<path style="fill:#00D9E0;" d="M512,256c0-4.185-0.108-8.346-0.307-12.482L404.217,136.042l-14.329,2.458l-15.891-14.975
	l-4.033,5.703l-72.58-72.576c-7.875-8.594-19.19-13.984-31.765-13.984c-23.792,0-43.079,19.287-43.079,43.079
	c0,2.144,0.162,4.25,0.465,6.31c-19.496,1.006-34.995,17.132-34.995,36.878c0,9.931,3.925,18.94,10.303,25.575l36.656,36.671v0.017
	h-30.732v38.318l15.515,15.562v3.004l-44.307-44.219l-22.073,3.786l-20.455-21.401l-15.71,22.215l-26.817-4.6l4.599,26.817
	l-22.215,15.71l21.212,21.56l-3.596,20.968l66.738,66.597c-0.759,4.881-1.159,9.877-1.159,14.967
	c0,28.338,12.214,53.87,31.747,71.806l69.696,69.696C398.145,511.221,512,396.913,512,256z"/>
<path style="fill:#FFB74F;" d="M303.146,106.893c3.529-6.248,5.552-13.46,5.552-21.147c0-23.792-19.287-43.079-43.079-43.079
	S222.54,61.954,222.54,85.746c0,2.144,0.162,4.25,0.464,6.31c-19.496,1.006-34.995,17.132-34.995,36.878
	c0,20.395,16.534,36.929,36.929,36.929c3.478,0,6.84-0.491,10.031-1.39v29.831h45.272v-29.647c2.729,0.78,5.608,1.206,8.588,1.206
	c17.245,0,31.224-13.98,31.224-31.224C320.054,122.556,313.186,112.085,303.146,106.893z"/>
<path style="fill:#E67500;" d="M320.05,134.64c0,17.24-13.98,31.22-31.22,31.22c-2.98,0-5.86-0.42-8.59-1.2v29.64H256V43.75
	c3.09-0.71,6.31-1.08,9.62-1.08c23.79,0,43.08,19.28,43.08,43.08c0,7.68-2.02,14.89-5.55,21.14
	C313.19,112.08,320.05,122.56,320.05,134.64z"/>
<polygon style="fill:#FF127F;" points="132.917,186.246 148.628,208.461 175.445,203.862 170.846,230.679 193.061,246.39 
	170.846,262.1 175.445,288.918 148.628,284.318 132.917,306.533 117.207,284.318 90.39,288.918 94.989,262.1 72.774,246.39 
	94.989,230.679 90.39,203.862 117.207,208.461 "/>
<polygon style="fill:#C50A5B;" points="380.427,239.745 388.907,251.736 403.382,249.253 400.899,263.728 412.89,272.208 
	400.899,280.688 403.382,295.163 388.907,292.68 380.427,304.671 371.947,292.68 357.472,295.163 359.955,280.688 347.964,272.208 
	359.955,263.728 357.472,249.253 371.947,251.736 "/>
<polygon style="fill:#1C2EDE;" points="373.997,123.524 385.161,139.31 404.217,136.042 400.949,155.098 416.735,166.262 
	400.949,177.426 404.217,196.482 385.161,193.214 373.997,209 362.833,193.214 343.776,196.482 347.045,177.426 331.259,166.262 
	347.045,155.098 343.776,136.042 362.833,139.31 "/>
<rect x="219.75" y="226.41" style="fill:#FFF5CB;" width="72.5" height="54.55"/>
<rect x="256" y="226.41" style="fill:#FFE670;" width="36.25" height="54.55"/>
<rect x="204.24" y="191.2" style="fill:#FFFFFF;" width="103.53" height="38.32"/>
<rect x="256" y="191.19" style="fill:#FFF5CB;" width="51.763" height="38.32"/>
<ellipse style="fill:#FFFFFF;" cx="256" cy="370.48" rx="100.03" ry="98.27"/>
<path style="fill:#FFF5CB;" d="M356.03,370.483c0,54.271-44.786,98.269-100.03,98.269V272.207c12.781,0,25.008,2.358,36.247,6.655
	C329.576,293.123,356.03,328.767,356.03,370.483z"/>
<path style="fill:#FFB74F;" d="M256,446.404c42.682,0,77.282-33.992,77.282-75.923c0-2.218-0.102-4.412-0.292-6.582l-30.612,11.132
	c-17.131,6.23-36.301,2.517-49.868-9.658l0,0c-12.414-11.141-29.613-15.263-45.728-10.961l-27.554,7.356
	c-0.333,2.86-0.509,5.766-0.509,8.713C178.718,412.412,213.318,446.404,256,446.404z"/>
<path style="fill:#E67500;" d="M333.284,370.483c0,41.928-34.602,75.92-77.284,75.92v-78.175
	c13.241,9.869,30.668,12.521,46.376,6.805l30.614-11.137C333.181,366.069,333.284,368.262,333.284,370.483z"/>
<g>
</g>
<g>
</g>
<g>
</g>
<g>
</g>
<g>
</g>
<g>
</g>
<g>
</g>
<g>
</g>
<g>
</g>
<g>
</g>
<g>
</g>
<g>
</g>
<g>
</g>
<g>
</g>
<g>
</g>
</svg>
