<?xml version="1.0" encoding="iso-8859-1"?>
<!-- Generator: Adobe Illustrator 19.0.0, SVG Export Plug-In . SVG Version: 6.00 Build 0)  -->
<svg version="1.1" id="Capa_1" xmlns="http://www.w3.org/2000/svg" xmlns:xlink="http://www.w3.org/1999/xlink" x="0px" y="0px"
	 viewBox="0 0 512 512" style="enable-background:new 0 0 512 512;" xml:space="preserve">
<circle style="fill:#9CFDFF;" cx="256" cy="256" r="256"/>
<path style="fill:#00D9E0;" d="M511.988,256.966L344.779,89.757c-22.176-23.72-53.741-38.553-88.775-38.554
	c-67.267-0.002-121.817,54.798-121.521,122.064c0.142,32.372,12.95,61.747,33.716,83.445l23.757,23.785
	c4.238,6.982,6.536,15.107,6.536,23.469v22.958h-27.044v43.799l25.388,25.526v18.623c0,10.773,4.577,20.472,11.888,27.274
	l69.137,68.915C408.694,499.994,511.493,390.547,511.988,256.966z"/>
<path style="fill:#3A4DE3;" d="M277.906,452.13h-43.812c-20.577,0-37.258-16.681-37.258-37.258v-56.445h118.327v56.445
	C315.164,435.449,298.483,452.13,277.906,452.13z"/>
<path style="fill:#1C2EDE;" d="M315.16,358.43v56.44c0,20.58-16.68,37.26-37.25,37.26H256v-93.7H315.16z"/>
<path style="fill:#FFAA20;" d="M377.518,172.721c0-67.111-54.403-121.516-121.514-121.518
	c-67.267-0.002-121.817,54.798-121.521,122.064c0.171,38.817,18.544,73.334,47.022,95.462c10.834,8.418,16.987,21.517,16.987,35.237
	v57.423h115.015v-57.428c0-13.918,6.485-26.992,17.436-35.582C359.299,246.134,377.518,211.557,377.518,172.721z"/>
<path style="fill:#E67500;" d="M377.52,172.72c0,38.84-18.22,73.41-46.58,95.66c-10.95,8.59-17.43,21.66-17.43,35.58v57.43H256V51.2
	C323.11,51.21,377.52,105.61,377.52,172.72z"/>
<rect x="171.45" y="326.93" style="fill:#6D76E7;" width="169.1" height="43.799"/>
<rect x="256" y="326.92" style="fill:#4B5BE5;" width="84.55" height="43.8"/>
<g>
</g>
<g>
</g>
<g>
</g>
<g>
</g>
<g>
</g>
<g>
</g>
<g>
</g>
<g>
</g>
<g>
</g>
<g>
</g>
<g>
</g>
<g>
</g>
<g>
</g>
<g>
</g>
<g>
</g>
</svg>
