<?xml version="1.0" encoding="iso-8859-1"?>
<!-- Generator: Adobe Illustrator 19.0.0, SVG Export Plug-In . SVG Version: 6.00 Build 0)  -->
<svg version="1.1" id="Capa_1" xmlns="http://www.w3.org/2000/svg" xmlns:xlink="http://www.w3.org/1999/xlink" x="0px" y="0px"
	 viewBox="0 0 512 512" style="enable-background:new 0 0 512 512;" xml:space="preserve">
<circle style="fill:#9CFDFF;" cx="256" cy="256" r="256"/>
<path style="fill:#00D9E0;" d="M511.982,257.402L356.68,102.1C331.649,74.987,295.811,58,256,58c-75.663,0-137,61.337-137,137
	H70.966v92.225l81.698,86.3l-50.454,87.141l0,0c1.203,0.905,2.419,1.794,3.639,2.677c0.277,0.201,0.552,0.406,0.83,0.606
	c1.236,0.888,2.482,1.762,3.734,2.629C151.749,495.21,201.91,512,256,512C396.916,512,511.226,398.141,511.982,257.402z"/>
<path style="fill:#FFFFFF;" d="M409.79,460.666L256.029,195.1V195L256,195.05l-0.029-0.05v0.1L102.21,460.666
	C145.029,492.892,198.281,512,256,512S366.971,492.892,409.79,460.666z"/>
<path style="fill:#FFF5CB;" d="M409.79,460.67C366.97,492.89,313.72,512,256,512V195.05l0.03-0.05v0.1L409.79,460.67z"/>
<path style="fill:#FF127F;" d="M393,195c0-75.663-61.337-137-137-137s-137,61.337-137,137c0,3.477,0.132,6.922,0.386,10.333h273.227
	C392.868,201.922,393,198.477,393,195z"/>
<path style="fill:#B10853;" d="M393,195c0,3.48-0.13,6.92-0.39,10.33H256V58C331.66,58,393,119.34,393,195z"/>
<rect x="70.966" y="195" style="fill:#6D76E7;" width="370.07" height="92.22"/>
<rect x="256" y="195" style="fill:#1C2EDE;" width="185.03" height="92.22"/>
<g>
	<circle style="fill:#FFE670;" cx="124.5" cy="241.11" r="26.06"/>
	<circle style="fill:#FFE670;" cx="212.16" cy="241.11" r="26.06"/>
</g>
<g>
	<circle style="fill:#FEC000;" cx="299.83" cy="241.11" r="26.06"/>
	<circle style="fill:#FEC000;" cx="387.5" cy="241.11" r="26.06"/>
</g>
<g>
</g>
<g>
</g>
<g>
</g>
<g>
</g>
<g>
</g>
<g>
</g>
<g>
</g>
<g>
</g>
<g>
</g>
<g>
</g>
<g>
</g>
<g>
</g>
<g>
</g>
<g>
</g>
<g>
</g>
</svg>
