<?xml version="1.0" encoding="iso-8859-1"?>
<!-- Generator: Adobe Illustrator 19.0.0, SVG Export Plug-In . SVG Version: 6.00 Build 0)  -->
<svg version="1.1" id="Capa_1" xmlns="http://www.w3.org/2000/svg" xmlns:xlink="http://www.w3.org/1999/xlink" x="0px" y="0px"
	 viewBox="0 0 512 512" style="enable-background:new 0 0 512 512;" xml:space="preserve">
<circle style="fill:#FFAA20;" cx="256" cy="256" r="256"/>
<path style="fill:#E67500;" d="M512,256c0-19.51-2.193-38.505-6.327-56.764l-96.454-96.454c0,0-343.192-8.873-262.088,249.325
	l-44.384,44.384l112.221,112.221C228.329,510.864,242.031,512,256,512C397.385,512,512,397.385,512,256z"/>
<path style="fill:#54FBFF;" d="M409.219,102.781c0,0-351.681-9.105-258.932,258.932
	C418.324,454.462,409.219,102.781,409.219,102.781z"/>
<path style="fill:#00D9E0;" d="M159.889,364.882c-3.168-0.99-6.364-2.051-9.603-3.168l258.935-258.935
	C409.221,102.779,418.103,446.008,159.889,364.882z"/>
<polygon style="fill:#4B5BE5;" points="302.472,293.906 307.592,276.597 261.731,263.033 353.229,171.535 340.465,158.771 
	286.94,212.297 273.375,166.436 256.066,171.556 272.413,226.824 209.507,289.73 195.942,243.868 178.633,248.989 194.98,304.257 
	102.746,396.49 115.51,409.254 247.204,277.56 "/>
<polygon style="fill:#1C2EDE;" points="302.469,293.902 247.209,277.561 115.51,409.26 109.125,402.875 346.848,165.152 
	353.233,171.538 261.733,263.037 307.596,276.6 "/>
<circle style="fill:#FFFFFF;" cx="355.08" cy="156.92" r="21.14"/>
<path style="fill:#FFF5CB;" d="M370.034,171.863c-5.975,5.975-14.63,7.63-22.083,4.957c-2.857-1.018-5.537-2.666-7.821-4.95
	l29.904-29.904C378.293,150.225,378.285,163.611,370.034,171.863z"/>
<g>
	<circle style="fill:#FFFFFF;" cx="265.86" cy="170.13" r="21.14"/>
	<circle style="fill:#FFFFFF;" cx="185.42" cy="238.09" r="21.14"/>
</g>
<circle style="fill:#FFF5CB;" cx="311.74" cy="288.47" r="21.14"/>
<g>
</g>
<g>
</g>
<g>
</g>
<g>
</g>
<g>
</g>
<g>
</g>
<g>
</g>
<g>
</g>
<g>
</g>
<g>
</g>
<g>
</g>
<g>
</g>
<g>
</g>
<g>
</g>
<g>
</g>
</svg>
