<?xml version="1.0" encoding="iso-8859-1"?>
<!-- Generator: Adobe Illustrator 19.0.0, SVG Export Plug-In . SVG Version: 6.00 Build 0)  -->
<svg version="1.1" id="Capa_1" xmlns="http://www.w3.org/2000/svg" xmlns:xlink="http://www.w3.org/1999/xlink" x="0px" y="0px"
	 viewBox="0 0 512 512" style="enable-background:new 0 0 512 512;" xml:space="preserve">
<circle style="fill:#4B5BE5;" cx="256" cy="256" r="256"/>
<path style="fill:#1C2EDE;" d="M512,256c0-21.944-2.766-43.241-7.959-63.567l-92.894-92.894
	c-20.423-20.423-109.249,12.239-150.468,53.459c-14.919,14.919-40.999,40.999-68.205,68.205l-47.88-6.733l-58.716,52.3
	l30.273,30.756c-14.039,14.039-23.093,23.093-23.093,23.093l34.548,34.548l-37.209,37.209l114.52,114.52
	C221.425,510.24,238.507,512,256,512C397.385,512,512,397.385,512,256z"/>
<polygon style="fill:#FFAA20;" points="199.722,222.222 144.594,214.47 85.878,266.77 133.607,288.336 "/>
<polygon style="fill:#E67500;" points="288.464,310.964 296.216,366.092 243.916,424.808 222.349,377.078 "/>
<path style="fill:#FFFFFF;" d="M411.147,99.539c-20.423-20.423-109.249,12.239-150.468,53.459S93.058,320.619,93.058,320.619
	l97.009,97.009c0,0,126.402-126.402,167.621-167.621S431.57,119.962,411.147,99.539z"/>
<path style="fill:#FFF5CB;" d="M357.69,250.011c-41.217,41.217-167.62,167.62-167.62,167.62l-48.508-48.508L411.147,99.539
	C431.568,119.96,398.907,208.794,357.69,250.011z"/>
<rect x="121.83" y="316.497" transform="matrix(-0.7071 -0.7071 0.7071 -0.7071 -19.3345 730.2249)" style="fill:#FF127F;" width="39.474" height="105.239"/>
<circle style="fill:#FFAA20;" cx="284.26" cy="226.42" r="53.44"/>
<path style="fill:#E67500;" d="M322.051,264.21c-20.867,20.867-54.709,20.867-75.576,0l75.576-75.576
	C342.918,209.501,342.918,243.343,322.051,264.21z"/>
<circle style="fill:#9CFDFF;" cx="284.26" cy="226.42" r="35.28"/>
<path style="fill:#00D9E0;" d="M309.21,251.369c-13.774,13.774-36.119,13.774-49.893,0l49.893-49.894
	C322.985,215.25,322.985,237.595,309.21,251.369z"/>
<rect x="95.913" y="366.228" transform="matrix(-0.7071 0.7071 -0.7071 -0.7071 519.5028 537.0103)" style="fill:#B10853;" width="105.239" height="19.74"/>
<g>
</g>
<g>
</g>
<g>
</g>
<g>
</g>
<g>
</g>
<g>
</g>
<g>
</g>
<g>
</g>
<g>
</g>
<g>
</g>
<g>
</g>
<g>
</g>
<g>
</g>
<g>
</g>
<g>
</g>
</svg>
