<?xml version="1.0" encoding="iso-8859-1"?>
<!-- Generator: Adobe Illustrator 19.0.0, SVG Export Plug-In . SVG Version: 6.00 Build 0)  -->
<svg version="1.1" id="Capa_1" xmlns="http://www.w3.org/2000/svg" xmlns:xlink="http://www.w3.org/1999/xlink" x="0px" y="0px"
	 viewBox="0 0 512 512" style="enable-background:new 0 0 512 512;" xml:space="preserve">
<circle style="fill:#FFAA20;" cx="256" cy="256" r="256"/>
<path style="fill:#E67500;" d="M512,256c0-21.965-2.77-43.283-7.974-63.627l-70.921-70.921H78.895v269.095l113.479,113.479
	C212.717,509.23,234.035,512,256,512C397.385,512,512,397.385,512,256z"/>
<rect x="78.895" y="121.45" style="fill:#FFFFFF;" width="354.21" height="269.1"/>
<rect x="256" y="121.45" style="fill:#FFF5CB;" width="177.11" height="269.1"/>
<rect x="108.41" y="151.97" style="fill:#4B5BE5;" width="295.18" height="208.06"/>
<rect x="256" y="151.97" style="fill:#1C2EDE;" width="147.59" height="208.06"/>
<g>
	<path style="fill:#FFFFFF;" d="M177.878,275.322v10.182h-41.486v-59.745h40.729v10.182h-29.116v14.389h25.161v9.424h-25.161v15.568
		L177.878,275.322L177.878,275.322z"/>
	<path style="fill:#FFFFFF;" d="M187.441,258.492v-7.321h26.339v7.321H187.441z M187.441,273.386v-7.321h26.339v7.321H187.441z"/>
	<path style="fill:#FFFFFF;" d="M294.027,285.504h-11.276v-24.74c0-3.535-0.603-6.114-1.809-7.741
		c-1.207-1.627-2.876-2.44-5.007-2.44c-2.244,0-4.348,0.855-6.311,2.566c-1.964,1.711-3.366,3.941-4.207,6.69v25.665h-11.276v-24.74
		c0-3.535-0.603-6.114-1.81-7.741s-2.875-2.44-5.007-2.44c-2.188,0-4.279,0.842-6.27,2.523c-1.991,1.683-3.408,3.9-4.249,6.648
		v25.75H225.53V241.41h10.182v8.163c1.626-2.862,3.856-5.063,6.69-6.605c2.832-1.543,6.072-2.315,9.719-2.315
		c3.703,0,6.563,0.898,8.583,2.693s3.309,4.011,3.871,6.647c1.794-3.029,4.067-5.342,6.816-6.943
		c2.748-1.599,5.89-2.398,9.424-2.398c2.693,0,4.908,0.504,6.648,1.515c1.738,1.01,3.084,2.329,4.039,3.955
		c0.953,1.628,1.612,3.48,1.978,5.554c0.364,2.076,0.546,4.18,0.546,6.311L294.027,285.504L294.027,285.504z"/>
</g>
<g>
	<path style="fill:#FFF5CB;" d="M293.48,251.68c-0.36-2.08-1.02-3.93-1.98-5.56c-0.95-1.62-2.3-2.94-4.04-3.95
		c-1.74-1.01-3.95-1.52-6.64-1.52c-3.54,0-6.68,0.8-9.43,2.4c-2.75,1.6-5.02,3.91-6.81,6.94c-0.57-2.63-1.86-4.85-3.88-6.64
		c-1.25-1.11-2.81-1.88-4.7-2.3v44.45h9.42v-25.66c0.84-2.75,2.24-4.98,4.2-6.69c1.97-1.71,4.07-2.57,6.32-2.57
		c2.13,0,3.8,0.82,5,2.44c1.21,1.63,1.81,4.21,1.81,7.74v24.74h11.28v-27.51C294.03,255.86,293.84,253.75,293.48,251.68z"/>
	<path style="fill:#FFF5CB;" d="M301.096,263.457c0-3.085,0.533-6.003,1.599-8.753c1.065-2.747,2.609-5.161,4.629-7.237
		c2.02-2.074,4.459-3.729,7.32-4.964c2.861-1.234,6.086-1.852,9.677-1.852c4.824,0,8.933,1.038,12.328,3.113
		c3.394,2.076,5.933,4.797,7.616,8.163l-11.023,3.366c-0.954-1.627-2.217-2.874-3.787-3.745c-1.571-0.87-3.311-1.305-5.217-1.305
		c-1.628,0-3.142,0.324-4.544,0.967c-1.403,0.646-2.623,1.544-3.661,2.693c-1.039,1.15-1.852,2.539-2.44,4.165
		c-0.589,1.628-0.884,3.422-0.884,5.386s0.308,3.758,0.926,5.385c0.617,1.627,1.444,3.029,2.482,4.208
		c1.037,1.177,2.257,2.09,3.66,2.735c1.402,0.645,2.889,0.967,4.46,0.967c2.02,0,3.884-0.504,5.596-1.514
		c1.711-1.01,2.903-2.244,3.576-3.703l11.024,3.366c-1.515,3.366-4.012,6.116-7.489,8.247c-3.479,2.133-7.658,3.198-12.538,3.198
		c-3.591,0-6.816-0.618-9.677-1.852c-2.861-1.232-5.302-2.903-7.321-5.007c-2.02-2.103-3.576-4.544-4.67-7.321
		C301.644,269.39,301.096,266.486,301.096,263.457z"/>
	<path style="fill:#FFF5CB;" d="M344.609,242.47c0-1.93,0.15-3.676,0.45-5.242c0.299-1.565,0.825-3.012,1.575-4.341
		c0.75-1.328,1.779-2.573,3.087-3.73c1.307-1.158,2.968-2.294,4.984-3.409c1.758-0.942,3.312-1.768,4.663-2.476
		c1.35-0.708,2.476-1.361,3.376-1.961s1.586-1.212,2.058-1.833c0.471-0.621,0.708-1.34,0.708-2.154c0-1.286-0.515-2.39-1.544-3.312
		c-1.029-0.921-2.508-1.382-4.438-1.382c-1.029,0-1.973,0.139-2.829,0.418c-0.858,0.279-1.662,0.653-2.412,1.125
		c-0.751,0.472-1.437,0.997-2.058,1.576c-0.622,0.579-1.19,1.19-1.704,1.833l-5.531-6.367c0.556-0.6,1.35-1.254,2.38-1.961
		c1.029-0.708,2.24-1.372,3.634-1.994c1.393-0.621,2.936-1.135,4.631-1.543c1.693-0.407,3.505-0.611,5.434-0.611
		c2.187,0,4.137,0.268,5.852,0.804c1.714,0.537,3.161,1.286,4.341,2.252c1.179,0.964,2.079,2.122,2.701,3.472
		c0.621,1.351,0.932,2.819,0.932,4.405c0,1.501-0.279,2.83-0.836,3.988c-0.558,1.158-1.265,2.186-2.122,3.087
		c-0.858,0.9-1.791,1.683-2.798,2.347c-1.008,0.666-1.984,1.255-2.926,1.769c-0.772,0.429-1.651,0.922-2.637,1.479
		c-0.987,0.558-1.962,1.169-2.926,1.833c-0.965,0.665-1.855,1.351-2.669,2.058c-0.815,0.707-1.437,1.405-1.865,2.09h19.487v7.781
		h-30.998V242.47z"/>
</g>
<g>
</g>
<g>
</g>
<g>
</g>
<g>
</g>
<g>
</g>
<g>
</g>
<g>
</g>
<g>
</g>
<g>
</g>
<g>
</g>
<g>
</g>
<g>
</g>
<g>
</g>
<g>
</g>
<g>
</g>
</svg>
