<?xml version="1.0" encoding="iso-8859-1"?>
<!-- Generator: Adobe Illustrator 19.0.0, SVG Export Plug-In . SVG Version: 6.00 Build 0)  -->
<svg version="1.1" id="Capa_1" xmlns="http://www.w3.org/2000/svg" xmlns:xlink="http://www.w3.org/1999/xlink" x="0px" y="0px"
	 viewBox="0 0 512 512" style="enable-background:new 0 0 512 512;" xml:space="preserve">
<circle style="fill:#FF127F;" cx="256" cy="256" r="256"/>
<path style="fill:#B10853;" d="M512,256c0-5.674-0.205-11.3-0.568-16.882L388.27,115.573c-3.754-3.831-8.305-6.908-13.388-8.977
	l-28.706-28.767c-11.837-13.275-29.23-21.547-48.052-21.547c-15.587,0-30.47,5.525-42.124,15.598
	c-11.653-10.073-26.536-15.598-42.124-15.598c-29.145,0-54.878,19.821-61.835,47.364c-21.699,0.102-39.319,17.413-39.319,38.677
	c0,10.38,4.204,19.812,11.028,26.764l62.902,62.888v31.047c-3.651,0.993-6.908,2.815-9.49,5.244
	c-3.988-3.753-9.576-6.09-15.767-6.09c-12.115,0-21.937,8.936-21.937,19.959c0,5.359,2.322,10.225,6.1,13.811l41.093,41.056v49.214
	c-3.88-1.404-8.252-2.217-12.902-2.217c-8.074,0-15.361,2.388-20.562,6.221c-5.2-3.832-12.487-6.22-20.561-6.22
	c-15.8,0-28.608,9.129-28.608,20.389c0,4.586,2.125,8.818,5.71,12.224l89.531,89.065C217.511,509.809,236.499,512,256,512
	C397.385,512,512,397.385,512,256z"/>
<rect x="186.65" y="138.08" style="fill:#FFF5CB;" width="138.69" height="260.67"/>
<rect x="256" y="138.08" style="fill:#FFE670;" width="69.35" height="260.67"/>
<rect x="228.5" y="138.08" style="fill:#FFFFFF;" width="55.01" height="260.67"/>
<rect x="256" y="138.08" style="fill:#FFF5CB;" width="27.5" height="260.67"/>
<path style="fill:#54FBFF;" d="M379.374,384c-8.074,0-15.361,2.387-20.562,6.221C353.61,386.387,346.323,384,338.25,384
	c-8.074,0-15.361,2.387-20.562,6.221c-5.201-3.834-12.489-6.221-20.562-6.221c-8.074,0-15.361,2.387-20.562,6.221
	C271.361,386.387,264.074,384,256,384s-15.361,2.387-20.562,6.221c-5.202-3.834-12.489-6.221-20.562-6.221
	c-8.074,0-15.361,2.387-20.562,6.221c-5.201-3.834-12.489-6.221-20.562-6.221c-8.074,0-15.361,2.387-20.562,6.221
	c-5.203-3.834-12.49-6.221-20.564-6.221c-15.8,0-28.608,9.129-28.608,20.389c0,11.261,12.808,20.389,28.608,20.389
	c8.074,0,15.361-2.387,20.562-6.221c5.201,3.834,12.489,6.221,20.562,6.221c8.074,0,15.361-2.387,20.562-6.221
	c5.201,3.834,12.489,6.221,20.562,6.221c8.074,0,15.361-2.387,20.562-6.221c5.201,3.834,12.489,6.221,20.562,6.221
	c8.074,0,15.361-2.387,20.562-6.221c5.201,3.834,12.489,6.221,20.562,6.221c8.074,0,15.361-2.387,20.562-6.221
	c5.201,3.834,12.489,6.221,20.562,6.221c8.074,0,15.361-2.387,20.562-6.221c5.201,3.834,12.489,6.221,20.562,6.221
	c15.799,0,28.608-9.129,28.608-20.389C407.981,393.129,395.173,384,379.374,384z"/>
<path style="fill:#00D9E0;" d="M407.98,404.39c0,11.26-12.81,20.39-28.61,20.39c-8.07,0-15.36-2.39-20.56-6.22
	c-5.2,3.83-12.49,6.22-20.56,6.22s-15.36-2.39-20.56-6.22c-5.2,3.83-12.49,6.22-20.57,6.22c-8.07,0-15.36-2.39-20.56-6.22
	c-5.2,3.83-12.49,6.22-20.56,6.22V384c8.07,0,15.36,2.39,20.56,6.22c5.2-3.83,12.49-6.22,20.56-6.22c8.08,0,15.37,2.39,20.57,6.22
	c5.2-3.83,12.49-6.22,20.56-6.22s15.36,2.39,20.56,6.22c5.2-3.83,12.49-6.22,20.56-6.22C395.17,384,407.98,393.13,407.98,404.39z"/>
<path style="fill:#9CFDFF;" d="M350.604,262.176c-6.191,0-11.779,2.337-15.767,6.09c-3.989-3.753-9.576-6.09-15.767-6.09
	s-11.779,2.337-15.767,6.09c-3.989-3.753-9.577-6.09-15.767-6.09c-6.191,0-11.779,2.337-15.767,6.09
	c-3.988-3.753-9.576-6.09-15.767-6.09c-6.191,0-11.779,2.337-15.767,6.09c-3.988-3.753-9.576-6.09-15.767-6.09
	s-11.779,2.337-15.767,6.09c-3.988-3.753-9.576-6.09-15.767-6.09s-11.779,2.337-15.767,6.09c-3.988-3.753-9.576-6.09-15.767-6.09
	c-12.115,0-21.937,8.936-21.937,19.959s9.821,19.959,21.937,19.959c6.191,0,11.779-2.337,15.767-6.09
	c3.989,3.753,9.576,6.09,15.767,6.09s11.779-2.337,15.767-6.09c3.988,3.753,9.576,6.09,15.767,6.09s11.779-2.337,15.767-6.09
	c3.989,3.753,9.576,6.09,15.767,6.09c6.191,0,11.779-2.337,15.767-6.09c3.989,3.753,9.576,6.09,15.767,6.09
	s11.779-2.337,15.767-6.09c3.989,3.753,9.576,6.09,15.767,6.09s11.779-2.337,15.767-6.09c3.988,3.753,9.576,6.09,15.767,6.09
	c12.115,0,21.937-8.936,21.937-19.959S362.72,262.176,350.604,262.176z"/>
<g>
	<path style="fill:#54FBFF;" d="M372.54,282.14c0,11.02-9.82,19.95-21.94,19.95c-6.19,0-11.77-2.33-15.76-6.09
		c-3.99,3.76-9.58,6.09-15.77,6.09s-11.78-2.33-15.77-6.09c-3.99,3.76-9.57,6.09-15.77,6.09c-6.19,0-11.77-2.33-15.76-6.09
		c-3.99,3.76-9.58,6.09-15.77,6.09v-39.91c6.19,0,11.78,2.33,15.77,6.09c3.99-3.76,9.57-6.09,15.76-6.09
		c6.2,0,11.78,2.33,15.77,6.09c3.99-3.76,9.58-6.09,15.77-6.09s11.78,2.33,15.77,6.09c3.99-3.76,9.57-6.09,15.76-6.09
		C362.72,262.18,372.54,271.11,372.54,282.14z"/>
	<path style="fill:#54FBFF;" d="M359.958,103.646c-6.957-27.544-32.689-47.365-61.834-47.365c-15.587,0-30.47,5.525-42.124,15.598
		c-11.653-10.073-26.536-15.598-42.124-15.598c-29.145,0-54.878,19.821-61.835,47.365c-21.699,0.102-39.319,17.413-39.319,38.677
		c0,21.326,17.725,38.676,39.511,38.676c9.999,0,19.428-3.611,26.738-10.201c10.389,6.68,22.42,10.202,34.905,10.202
		c15.587,0,30.47-5.525,42.124-15.598C267.655,175.475,282.538,181,298.124,181c12.484,0,24.516-3.522,34.905-10.201
		c7.31,6.59,16.738,10.201,26.737,10.201c21.787,0,39.512-17.35,39.512-38.676C399.278,121.059,381.658,103.748,359.958,103.646z"/>
</g>
<path style="fill:#00D9E0;" d="M399.28,142.32c0,21.33-17.73,38.68-39.51,38.68c-10,0-19.43-3.61-26.74-10.2
	c-10.39,6.68-22.42,10.2-34.91,10.2c-15.58,0-30.47-5.52-42.12-15.6V71.88c11.65-10.07,26.54-15.6,42.12-15.6
	c29.15,0,54.88,19.82,61.84,47.37C381.66,103.75,399.28,121.06,399.28,142.32z"/>
<g>
</g>
<g>
</g>
<g>
</g>
<g>
</g>
<g>
</g>
<g>
</g>
<g>
</g>
<g>
</g>
<g>
</g>
<g>
</g>
<g>
</g>
<g>
</g>
<g>
</g>
<g>
</g>
<g>
</g>
</svg>
