<?xml version="1.0" encoding="iso-8859-1"?>
<!-- Generator: Adobe Illustrator 19.0.0, SVG Export Plug-In . SVG Version: 6.00 Build 0)  -->
<svg version="1.1" id="Capa_1" xmlns="http://www.w3.org/2000/svg" xmlns:xlink="http://www.w3.org/1999/xlink" x="0px" y="0px"
	 viewBox="0 0 512 512" style="enable-background:new 0 0 512 512;" xml:space="preserve">
<circle style="fill:#54FBFF;" cx="256" cy="256" r="256"/>
<path style="fill:#00D9E0;" d="M512,256c0-7.847-0.373-15.606-1.064-23.273l-181.06-181.06H182.124v73.847h-14.645v30.027
	l28.236,28.126v32.992l-56.406,59.057c-8.96,9.38-13.959,21.853-13.959,34.825v80.372c0,14.596,6.209,27.733,16.123,36.939
	l82.373,82.143C234.378,511.315,245.109,512,256,512C397.385,512,512,397.385,512,256z"/>
<path style="fill:#6D76E7;" d="M316.286,216.658v-98.815H195.714v98.815l-56.407,59.057c-8.959,9.381-13.959,21.853-13.959,34.825
	v80.372c0,27.847,22.574,50.421,50.421,50.421H336.23c27.847,0,50.421-22.574,50.421-50.421V310.54c0-12.972-5-25.445-13.959-34.825
	L316.286,216.658z"/>
<path style="fill:#1C2EDE;" d="M386.65,310.54v80.37c0,27.85-22.57,50.42-50.42,50.42H256V117.84h60.29v98.82l56.4,59.06
	C381.65,285.1,386.65,297.57,386.65,310.54z"/>
<rect x="182.12" y="51.667" style="fill:#FFFFFF;" width="147.75" height="80.11"/>
<g>
	<rect x="256" y="51.67" style="fill:#FFF5CB;" width="73.88" height="80.1"/>
	<rect x="167.48" y="125.51" style="fill:#FFF5CB;" width="177.04" height="30.03"/>
</g>
<rect x="256" y="125.51" style="fill:#FFE670;" width="88.52" height="30.03"/>
<path style="fill:#FFFFFF;" d="M320.97,330.017c3.922-7.532,6.119-15.865,6.119-24.64c0-33.533-31.827-60.717-71.089-60.717
	s-71.089,27.184-71.089,60.717c0,8.775,2.197,17.108,6.119,24.64c-5.256,4.363-8.605,10.944-8.605,18.308
	c0,13.136,10.649,23.786,23.786,23.786c5.661,0,10.854-1.986,14.939-5.288v23.256c0,7.944,6.44,14.385,14.385,14.385h1.715V367.9
	h12.829v36.564h11.843V367.9h12.829v36.564h1.715c7.945,0,14.385-6.44,14.385-14.385v-23.256c4.084,3.302,9.277,5.288,14.939,5.288
	c13.136,0,23.786-10.649,23.786-23.786C329.576,340.961,326.226,334.38,320.97,330.017z M231.197,320.4h-2.178
	c-10.064,0-18.298-8.234-18.298-18.298v-2.015c0-10.064,8.234-18.298,18.298-18.298h2.178c10.064,0,18.298,8.234,18.298,18.298
	v2.015C249.496,312.166,241.262,320.4,231.197,320.4z M265.512,349.356h-19.025c-4.269,0-6.889-4.675-4.661-8.316l9.512-15.544
	c2.131-3.483,7.19-3.483,9.321,0l9.512,15.544C272.401,344.681,269.781,349.356,265.512,349.356z M301.279,302.102
	c0,10.064-8.234,18.298-18.298,18.298h-2.178c-10.064,0-18.298-8.234-18.298-18.298v-2.015c0-10.064,8.234-18.298,18.298-18.298
	h2.178c10.064,0,18.298,8.234,18.298,18.298V302.102z"/>
<path style="fill:#FFE670;" d="M320.968,330.016c3.924-7.527,6.121-15.863,6.121-24.636c0-33.536-31.827-60.716-71.089-60.716v78.22
	c1.802,0,3.595,0.867,4.665,2.61l9.506,15.543c2.231,3.646-0.387,8.319-4.656,8.319H256v55.109h5.919v-36.569h12.832v36.569h1.718
	c7.94,0,14.381-6.441,14.381-14.39V366.82c4.084,3.309,9.278,5.288,14.937,5.288c13.144,0,23.786-10.643,23.786-23.778
	C329.573,340.962,326.23,334.378,320.968,330.016z M301.282,302.105c0,10.062-8.235,18.296-18.305,18.296h-2.172
	c-10.07,0-18.305-8.235-18.305-18.296v-2.021c0-10.062,8.235-18.296,18.305-18.296h2.172c10.07,0,18.305,8.235,18.305,18.296
	V302.105z"/>
<g>
</g>
<g>
</g>
<g>
</g>
<g>
</g>
<g>
</g>
<g>
</g>
<g>
</g>
<g>
</g>
<g>
</g>
<g>
</g>
<g>
</g>
<g>
</g>
<g>
</g>
<g>
</g>
<g>
</g>
</svg>
