<?xml version="1.0" encoding="iso-8859-1"?>
<!-- Generator: Adobe Illustrator 19.0.0, SVG Export Plug-In . SVG Version: 6.00 Build 0)  -->
<svg version="1.1" id="Capa_1" xmlns="http://www.w3.org/2000/svg" xmlns:xlink="http://www.w3.org/1999/xlink" x="0px" y="0px"
	 viewBox="0 0 512 512" style="enable-background:new 0 0 512 512;" xml:space="preserve">
<circle style="fill:#4B5BE5;" cx="256" cy="256" r="256"/>
<path style="fill:#1C2EDE;" d="M512,256c0-21.255-2.608-41.899-7.49-61.645l-75.436-75.436
	c-17.954-17.954-39.29-25.726-47.656-17.36c-7.71,7.71-6.978,16.087-1.697,25.114l-80.137,69.395H80.291
	c-16.769,0-30.489,13.72-30.489,30.488l0,0c0,8.212,3.293,15.69,8.622,21.185l32.457,31.979v18.365
	c0,40.225,16.818,76.518,43.801,102.243c0,0,64.347,64.379,111.466,111.466C249.419,511.917,252.7,512,256,512
	C397.385,512,512,397.385,512,256z"/>
<polygon style="fill:#FFF5CB;" points="425.025,163.992 384,122.967 298.989,196.581 351.41,249.003 "/>
<polygon style="fill:#FFE670;" points="351.409,249.001 325.196,222.789 404.513,143.473 425.026,163.986 421.823,167.684 "/>
<path style="fill:#FFFFFF;" d="M446.434,166.574c-12.084,12.084-29.702,0.593-47.656-17.36
	c-17.954-17.954-31.146-33.87-17.36-47.656c8.366-8.366,29.702-0.593,47.656,17.36C447.027,136.872,454.8,158.208,446.434,166.574z"
	/>
<path style="fill:#FFF5CB;" d="M446.437,166.574c-6.774,6.774-15.288,6.138-24.614,1.11c-7.333-3.939-15.153-10.585-23.045-18.477
	l30.293-30.293C447.024,136.868,454.802,158.209,446.437,166.574z"/>
<path style="fill:#FFFFFF;" d="M279.869,439.333h-47.737c-78.01,0-141.25-63.24-141.25-141.25v-50.345h330.237v50.345
	C421.119,376.094,357.879,439.333,279.869,439.333z"/>
<path style="fill:#FFF5CB;" d="M421.12,247.737v50.35c0,78.01-63.24,141.25-141.25,141.25H256v-191.6H421.12z"/>
<path style="fill:#9CFDFF;" d="M431.709,257.043H80.291c-16.769,0-30.488-13.72-30.488-30.488l0,0
	c0-16.769,13.72-30.488,30.488-30.488H431.71c16.769,0,30.488,13.72,30.488,30.488l0,0
	C462.198,243.324,448.478,257.043,431.709,257.043z"/>
<path style="fill:#00E8F2;" d="M462.2,226.557c0,8.39-3.43,16.01-8.96,21.53c-5.52,5.53-13.14,8.96-21.53,8.96H256v-60.98h175.71
	C448.48,196.067,462.2,209.787,462.2,226.557z"/>
<g>
</g>
<g>
</g>
<g>
</g>
<g>
</g>
<g>
</g>
<g>
</g>
<g>
</g>
<g>
</g>
<g>
</g>
<g>
</g>
<g>
</g>
<g>
</g>
<g>
</g>
<g>
</g>
<g>
</g>
</svg>
