<?xml version="1.0" encoding="iso-8859-1"?>
<!-- Generator: Adobe Illustrator 19.0.0, SVG Export Plug-In . SVG Version: 6.00 Build 0)  -->
<svg version="1.1" id="Capa_1" xmlns="http://www.w3.org/2000/svg" xmlns:xlink="http://www.w3.org/1999/xlink" x="0px" y="0px"
	 viewBox="0 0 512 512" style="enable-background:new 0 0 512 512;" xml:space="preserve">
<circle style="fill:#FFAA20;" cx="256" cy="256" r="256"/>
<path style="fill:#E67500;" d="M506.715,204.019l-47.601-47.601H300v-50.751h-88v50.751H52.887V299.28
	c0,16.421,6.562,31.33,17.191,42.269L240.187,511.5c5.232,0.319,10.501,0.5,15.813,0.5c141.385,0,256-114.615,256-256
	C512,238.189,510.177,220.805,506.715,204.019z"/>
<rect x="212" y="105.67" style="fill:#54FBFF;" width="88" height="60"/>
<rect x="256" y="105.67" style="fill:#00D9E0;" width="44" height="60"/>
<path style="fill:#54FBFF;" d="M64.887,206.262v93.018c0,26.907,21.813,48.72,48.72,48.72h78.953
	c16.728,0,31.583-10.695,36.888-26.56l12.2-36.479c4.608-13.778,24.096-13.778,28.704,0l12.2,36.479
	c5.306,15.864,20.16,26.56,36.888,26.56h78.953c26.907,0,48.72-21.813,48.72-48.72v-93.018H64.887z"/>
<path style="fill:#00D9E0;" d="M447.11,206.26v93.02c0,26.91-21.81,48.72-48.72,48.72h-78.95c-16.73,0-31.58-10.7-36.89-26.56
	l-12.2-36.48c-2.31-6.89-8.33-10.34-14.35-10.34v-68.36H447.11z"/>
<rect x="52.887" y="156.42" style="fill:#FF127F;" width="406.23" height="41.582"/>
<rect x="256" y="156.42" style="fill:#B10853;" width="203.11" height="41.58"/>
<path style="fill:#FFFFFF;" d="M398.394,360H319.44c-21.919,0-41.317-13.967-48.269-34.754l-12.2-36.479
	c-0.475-1.419-1.475-2.139-2.972-2.139s-2.497,0.72-2.972,2.14l-12.2,36.478C233.876,346.033,214.479,360,192.56,360h-78.953
	c-33.481,0-60.72-27.238-60.72-60.72V194.262h406.227V299.28C459.113,332.762,431.875,360,398.394,360z M256,262.628
	c11.868,0,21.968,7.272,25.732,18.526l12.2,36.48C297.606,328.619,307.857,336,319.44,336h78.953c20.247,0,36.72-16.473,36.72-36.72
	v-81.019H76.887v81.019c0,20.247,16.473,36.72,36.72,36.72h78.953c11.583,0,21.834-7.381,25.508-18.365l12.2-36.479
	C234.032,269.9,244.132,262.628,256,262.628z"/>
<path style="fill:#FFF5CB;" d="M256,194.26v24h179.11v81.02c0,20.25-16.47,36.72-36.72,36.72h-78.95
	c-11.58,0-21.83-7.38-25.51-18.37l-12.2-36.48c-3.76-11.25-13.86-18.52-25.73-18.52v24c1.5,0,2.5,0.72,2.97,2.14l12.2,36.48
	c6.95,20.78,26.35,34.75,48.27,34.75h78.95c33.48,0,60.72-27.24,60.72-60.72V194.26H256z"/>
<g>
</g>
<g>
</g>
<g>
</g>
<g>
</g>
<g>
</g>
<g>
</g>
<g>
</g>
<g>
</g>
<g>
</g>
<g>
</g>
<g>
</g>
<g>
</g>
<g>
</g>
<g>
</g>
<g>
</g>
</svg>
