<?xml version="1.0" encoding="iso-8859-1"?>
<!-- Generator: Adobe Illustrator 19.0.0, SVG Export Plug-In . SVG Version: 6.00 Build 0)  -->
<svg version="1.1" id="Capa_1" xmlns="http://www.w3.org/2000/svg" xmlns:xlink="http://www.w3.org/1999/xlink" x="0px" y="0px"
	 viewBox="0 0 512 512" style="enable-background:new 0 0 512 512;" xml:space="preserve">
<circle style="fill:#54FBFF;" cx="256" cy="256" r="256"/>
<path style="fill:#00D9E0;" d="M512,256c0-10.662-0.663-21.169-1.929-31.489L376.5,90.94H108.911l44.133,116.751v222.035
	l81.358,81.358C241.524,511.68,248.724,512,256,512C397.385,512,512,397.385,512,256z"/>
<polygon style="fill:#FFFFFF;" points="376.5,90.94 108.911,90.94 153.044,207.691 153.044,420.512 376.5,420.512 "/>
<rect x="262.5" y="90.94" style="fill:#FFF5CB;" width="114" height="329.57"/>
<rect x="153.04" y="255.73" style="fill:#FFAA20;" width="223.46" height="174"/>
<rect x="262.5" y="255.72" style="fill:#E67500;" width="114" height="174"/>
<g>
	<rect x="153.04" y="214.73" style="fill:#4B5BE5;" width="82.12" height="16.242"/>
	<rect x="153.04" y="275.11" style="fill:#4B5BE5;" width="52.12" height="16.242"/>
	<rect x="153.04" y="335.48" style="fill:#4B5BE5;" width="82.12" height="16.242"/>
</g>
<g>
</g>
<g>
</g>
<g>
</g>
<g>
</g>
<g>
</g>
<g>
</g>
<g>
</g>
<g>
</g>
<g>
</g>
<g>
</g>
<g>
</g>
<g>
</g>
<g>
</g>
<g>
</g>
<g>
</g>
</svg>
