<?xml version="1.0" encoding="iso-8859-1"?>
<!-- Generator: Adobe Illustrator 19.0.0, SVG Export Plug-In . SVG Version: 6.00 Build 0)  -->
<svg version="1.1" id="Capa_1" xmlns="http://www.w3.org/2000/svg" xmlns:xlink="http://www.w3.org/1999/xlink" x="0px" y="0px"
	 viewBox="0 0 512 512" style="enable-background:new 0 0 512 512;" xml:space="preserve">
<circle style="fill:#FFDBA9;" cx="256" cy="256" r="256"/>
<path style="fill:#FFB74F;" d="M512,256c0-18.881-2.063-37.277-5.941-54.994L389.242,83.553c-7.694-7.694-20.168-7.694-27.862,0
	c-4.461,4.462-6.318,10.529-5.605,16.341l-73.771,16.003L228.9,62.794l-21.854,21.854c-46.378,46.378-47.207,121.052-2.495,168.447
	c-4.703,5.717-7.527,13.038-7.527,21.019c0,10.793,5.175,20.366,13.168,26.41c0.793,1.052,1.651,2.051,2.561,3l-37.405,84.145
	h-62.969v39.152l76.183,76.183C210.05,508.857,232.657,512,256,512C397.385,512,512,397.385,512,256z"/>
<path style="fill:#FFFFFF;" d="M374.757,99.763c-0.058-0.087-0.121-0.171-0.183-0.255c-0.035-0.048-0.068-0.098-0.105-0.145
	c-0.061-0.077-0.127-0.151-0.191-0.225c-0.042-0.049-0.083-0.101-0.126-0.148c-0.055-0.06-0.115-0.115-0.173-0.173
	s-0.113-0.118-0.173-0.173c-0.047-0.044-0.099-0.084-0.148-0.126c-0.074-0.064-0.148-0.131-0.225-0.191
	c-0.047-0.037-0.097-0.069-0.145-0.105c-0.084-0.062-0.168-0.126-0.255-0.183c-0.049-0.033-0.102-0.061-0.152-0.093
	c-0.09-0.056-0.179-0.112-0.272-0.163c-0.007-0.004-0.014-0.009-0.021-0.012c-0.053-0.029-0.109-0.053-0.163-0.08
	c-0.085-0.043-0.169-0.087-0.257-0.127c-0.073-0.033-0.147-0.061-0.22-0.09c-0.077-0.031-0.154-0.064-0.233-0.092
	c-0.08-0.029-0.161-0.052-0.241-0.077c-0.075-0.023-0.149-0.048-0.224-0.068c-0.083-0.022-0.166-0.04-0.249-0.059
	c-0.076-0.017-0.152-0.035-0.229-0.05c-0.081-0.015-0.163-0.026-0.245-0.037c-0.08-0.011-0.16-0.024-0.24-0.033
	c-0.079-0.008-0.159-0.012-0.238-0.017c-0.083-0.005-0.167-0.012-0.25-0.014c-0.08-0.002-0.159,0.001-0.239,0.002
	c-0.083,0.001-0.166,0.001-0.249,0.006c-0.086,0.005-0.17,0.015-0.256,0.023c-0.077,0.008-0.153,0.013-0.23,0.024
	c-0.099,0.014-0.197,0.033-0.295,0.052c-0.055,0.01-0.111,0.017-0.166,0.029l-90.763,19.689l2.592,11.946l70.441-15.281
	l-40.522,40.522l8.644,8.644l40.522-40.522l-15.281,70.441l11.947,2.591l19.689-90.763c0.012-0.055,0.019-0.111,0.029-0.166
	c0.019-0.098,0.038-0.196,0.052-0.295c0.01-0.077,0.016-0.153,0.024-0.23c0.008-0.085,0.018-0.17,0.023-0.256
	c0.005-0.083,0.005-0.166,0.006-0.249c0.001-0.08,0.004-0.159,0.002-0.239c-0.002-0.084-0.008-0.167-0.014-0.25
	c-0.005-0.079-0.009-0.159-0.017-0.238c-0.008-0.081-0.021-0.16-0.033-0.241c-0.012-0.082-0.022-0.163-0.037-0.245
	c-0.014-0.077-0.033-0.152-0.05-0.229c-0.019-0.083-0.036-0.166-0.059-0.249c-0.02-0.076-0.045-0.15-0.068-0.224
	c-0.025-0.081-0.049-0.161-0.077-0.241c-0.028-0.079-0.061-0.155-0.092-0.233c-0.03-0.074-0.058-0.148-0.091-0.22
	c-0.039-0.087-0.083-0.171-0.127-0.257c-0.027-0.054-0.051-0.109-0.08-0.162c-0.004-0.007-0.009-0.014-0.013-0.021
	c-0.051-0.092-0.107-0.182-0.163-0.272C374.818,99.865,374.789,99.813,374.757,99.763z"/>
<path style="fill:#FFF5CB;" d="M355.945,195.197l-11.943-2.595l15.273-70.442l-40.524,40.524l-4.32-4.32l59.545-59.545
	c0.057,0.057,0.12,0.106,0.17,0.17c0.049,0.049,0.085,0.099,0.135,0.148c0.064,0.078,0.127,0.156,0.184,0.226
	c0.042,0.042,0.071,0.099,0.106,0.149c0.064,0.078,0.127,0.17,0.184,0.255c0.035,0.049,0.064,0.092,0.092,0.148
	c0.064,0.092,0.113,0.184,0.163,0.276c0.007,0.007,0.014,0.014,0.014,0.014c0.028,0.057,0.056,0.113,0.085,0.17
	c0.042,0.085,0.085,0.17,0.127,0.255c0.028,0.071,0.057,0.141,0.092,0.219c0.021,0.078,0.057,0.156,0.092,0.233
	c0.021,0.078,0.049,0.163,0.071,0.24c0.028,0.071,0.049,0.148,0.071,0.226c0.021,0.078,0.035,0.163,0.064,0.248
	c0.014,0.071,0.028,0.156,0.043,0.226c0.014,0.085,0.028,0.17,0.035,0.247c0.021,0.078,0.028,0.156,0.035,0.233
	c0.014,0.085,0.014,0.17,0.014,0.24c0.014,0.085,0.014,0.17,0.014,0.255c0.007,0.078,0,0.155,0,0.24s-0.007,0.163-0.007,0.248
	s-0.014,0.17-0.021,0.248l-0.021,0.233c-0.014,0.099-0.035,0.205-0.057,0.297c-0.014,0.057-0.014,0.113-0.028,0.17L355.945,195.197z
	"/>
<path style="fill:#FF127F;" d="M217.124,265.749l-10.078-10.078c-47.227-47.227-47.227-123.797,0-171.023L228.9,62.794
	l181.101,181.101l-21.854,21.854C340.921,312.975,264.351,312.975,217.124,265.749z"/>
<path style="fill:#B10853;" d="M410.004,243.896l-21.857,21.857c-47.228,47.228-123.8,47.221-171.021,0l-5.042-5.042
	l107.367-107.367L410.004,243.896z"/>
<circle style="fill:#4B5BE5;" cx="375.31" cy="97.48" r="19.702"/>
<path style="fill:#1C2EDE;" d="M389.243,111.412c-7.693,7.693-20.167,7.693-27.86,0l27.86-27.86
	C396.936,91.246,396.936,103.719,389.243,111.412z"/>
<polygon style="fill:#9CFDFF;" points="230.134,264.423 171.627,396.039 288.641,396.039 "/>
<polygon style="fill:#00E8F2;" points="288.644,396.044 230.134,396.044 230.134,264.424 234.884,275.114 "/>
<rect x="112.38" y="387.67" style="fill:#4B5BE5;" width="235.51" height="39.15"/>
<rect x="230.13" y="387.67" style="fill:#1C2EDE;" width="117.76" height="39.16"/>
<circle style="fill:#FFFFFF;" cx="230.13" cy="274.11" r="33.11"/>
<path style="fill:#FFF5CB;" d="M263.244,274.114c0,18.29-14.82,33.11-33.11,33.11v-66.22
	C248.424,241.004,263.244,255.824,263.244,274.114z"/>
<g>
</g>
<g>
</g>
<g>
</g>
<g>
</g>
<g>
</g>
<g>
</g>
<g>
</g>
<g>
</g>
<g>
</g>
<g>
</g>
<g>
</g>
<g>
</g>
<g>
</g>
<g>
</g>
<g>
</g>
</svg>
