<?xml version="1.0" encoding="iso-8859-1"?>
<!-- Generator: Adobe Illustrator 19.0.0, SVG Export Plug-In . SVG Version: 6.00 Build 0)  -->
<svg version="1.1" id="Capa_1" xmlns="http://www.w3.org/2000/svg" xmlns:xlink="http://www.w3.org/1999/xlink" x="0px" y="0px"
	 viewBox="0 0 512 512" style="enable-background:new 0 0 512 512;" xml:space="preserve">
<circle style="fill:#4B5BE5;" cx="256" cy="256" r="256"/>
<path style="fill:#1C2EDE;" d="M511.873,263.754L345.107,96.891C322.125,74.418,290.683,60.56,256,60.56l0,0
	c-70.399,0-127.469,57.07-127.469,127.469v154.522h-25.182v56.492L212.63,508.324C226.729,510.73,241.215,512,256,512
	C394.79,512,507.772,401.551,511.873,263.754z"/>
<path style="fill:#FFFFFF;" d="M383.469,350.468H128.531V188.029c0-70.399,57.07-127.469,127.469-127.469l0,0
	c70.399,0,127.469,57.07,127.469,127.469V350.468z"/>
<path style="fill:#FFF5CB;" d="M383.47,188.03v162.44H256V60.56c35.2,0,67.07,14.27,90.14,37.34
	C369.2,120.96,383.47,152.83,383.47,188.03z"/>
<path style="fill:#54FBFF;" d="M306.388,162.345C305.687,133.871,282.402,111,253.759,111c-29.085,0-52.663,23.578-52.663,52.663
	c0,0.941,0.027,1.875,0.076,2.804c-21.77,1.528-38.959,19.659-38.959,41.817c0,22.718,18.07,41.204,40.619,41.9
	c7.276,18.359,25.178,31.35,46.127,31.35c19.783,0,36.857-11.582,44.824-28.332c3.217,0.712,6.556,1.1,9.987,1.1
	c25.415,0,46.018-20.603,46.018-46.018C349.788,183.748,330.584,163.703,306.388,162.345z"/>
<path style="fill:#00D9E0;" d="M349.79,208.28c0,25.42-20.61,46.02-46.02,46.02c-3.43,0-6.77-0.39-9.99-1.1
	c-7,14.73-21.05,25.46-37.78,27.83V111.05c27.6,1.15,49.71,23.57,50.39,51.3C330.58,163.7,349.79,183.75,349.79,208.28z"/>
<polygon style="fill:#FFB74F;" points="305.978,215.384 291.733,200.922 266.15,226.12 266.15,186.567 245.85,186.567 
	245.85,229.812 215.448,206.538 203.108,222.658 245.85,255.377 245.85,345.551 266.15,345.551 266.15,254.614 "/>
<polygon style="fill:#E67500;" points="305.98,215.38 266.15,254.61 266.15,345.55 256,345.55 256,186.57 266.15,186.57 
	266.15,226.12 291.73,200.92 "/>
<rect x="103.35" y="342.55" style="fill:#FFE670;" width="305.3" height="56.49"/>
<rect x="256" y="342.55" style="fill:#FEC000;" width="152.65" height="56.49"/>
<g>
</g>
<g>
</g>
<g>
</g>
<g>
</g>
<g>
</g>
<g>
</g>
<g>
</g>
<g>
</g>
<g>
</g>
<g>
</g>
<g>
</g>
<g>
</g>
<g>
</g>
<g>
</g>
<g>
</g>
</svg>
