<?xml version="1.0" encoding="iso-8859-1"?>
<!-- Generator: Adobe Illustrator 19.0.0, SVG Export Plug-In . SVG Version: 6.00 Build 0)  -->
<svg version="1.1" id="Capa_1" xmlns="http://www.w3.org/2000/svg" xmlns:xlink="http://www.w3.org/1999/xlink" x="0px" y="0px"
	 viewBox="0 0 512 512" style="enable-background:new 0 0 512 512;" xml:space="preserve">
<circle style="fill:#FF127F;" cx="256" cy="256" r="256"/>
<path style="fill:#B10853;" d="M501.028,330.32L222.257,51.548l-16.884,16.884l8.049,8.049L80.906,208.998
	c-13.662,13.661-13.662,35.811,0,49.473l0,0l124.16,124.101v9.885c0,10.737,4.37,20.45,11.424,27.469l87.793,87.507
	C398.093,489.526,473.731,420.435,501.028,330.32z"/>
<path style="fill:#FFFFFF;" d="M80.906,258.471L80.906,258.471c-13.662-13.662-13.662-35.811,0-49.473L216.367,73.536l49.473,49.473
	L130.378,258.471C116.717,272.133,94.567,272.133,80.906,258.471z"/>
<path style="fill:#FFF5CB;" d="M265.843,123.01L130.382,258.471c-13.662,13.662-35.813,13.662-49.475,0L241.106,98.272
	L265.843,123.01z"/>
<path style="fill:#FFE670;" d="M92.145,247.232L92.145,247.232c-7.975-7.975-7.975-20.904,0-28.879l86.273-86.273l63.039-5.281
	L121.024,247.232C113.049,255.206,100.12,255.206,92.145,247.232z"/>
<path style="fill:#FEC000;" d="M241.458,126.793L121.022,247.229c-7.977,7.977-20.896,7.977-28.873,0L209.947,129.43
	L241.458,126.793z"/>
<rect x="200.236" y="80.84" transform="matrix(-0.7071 -0.7071 0.7071 -0.7071 355.3698 332.7551)" style="fill:#9CFDFF;" width="92.729" height="23.877"/>
<rect x="251.059" y="85.985" transform="matrix(-0.7071 0.7071 -0.7071 -0.7071 526.1572 0.3971)" style="fill:#00D9E0;" width="23.875" height="46.37"/>
<path style="fill:#FFFFFF;" d="M335.005,431.226h-91.17c-21.412,0-38.769-17.358-38.769-38.769V249.018h168.708v143.439
	C373.774,413.869,356.417,431.226,335.005,431.226z"/>
<path style="fill:#FFF5CB;" d="M373.774,249.022v143.44c0,21.41-17.36,38.76-38.77,38.76h-42.96v-182.2L373.774,249.022
	L373.774,249.022z"/>
<g>
	<circle style="fill:#1C2EDE;" cx="334.6" cy="320.7" r="13.445"/>
	<circle style="fill:#1C2EDE;" cx="310.64" cy="284.85" r="10.517"/>
</g>
<circle style="fill:#4B5BE5;" cx="258.51" cy="298.38" r="19.399"/>
<rect x="193.38" y="225.35" style="fill:#9CFDFF;" width="197.33" height="32"/>
<rect x="292.04" y="225.35" style="fill:#00D9E0;" width="98.67" height="32"/>
<path style="fill:#4B5BE5;" d="M247.4,416.518h84.041c15.085,0,27.313-12.228,27.313-27.313v-48.711l-8.503,3.78
	c-18.988,8.441-40.93,6.885-58.537-4.152c-14.054-8.81-31.035-11.667-47.198-7.94l-24.429,5.632v51.391
	C220.087,404.29,232.315,416.518,247.4,416.518z"/>
<path style="fill:#1C2EDE;" d="M358.754,340.492v48.71c0,15.09-12.23,27.32-27.31,27.32h-39.4v-76.2
	c17.55,10.86,39.34,12.34,58.21,3.95L358.754,340.492z"/>
<path style="fill:#FFE670;" d="M316.241,177.001c-0.923-25.21-24.196-42.998-24.196-42.998s-23.273,17.788-24.196,42.998
	c-0.452,12.36,5.597,18.804,11.759,22.157c7.775,4.231,17.1,4.231,24.875,0C310.645,195.805,316.694,189.362,316.241,177.001z"/>
<path style="fill:#FEC000;" d="M304.482,199.157c-3.888,2.116-8.163,3.174-12.437,3.174v-68.328c0,0,23.274,17.787,24.195,42.997
	C316.693,189.363,310.645,195.805,304.482,199.157z"/>
<g>
</g>
<g>
</g>
<g>
</g>
<g>
</g>
<g>
</g>
<g>
</g>
<g>
</g>
<g>
</g>
<g>
</g>
<g>
</g>
<g>
</g>
<g>
</g>
<g>
</g>
<g>
</g>
<g>
</g>
</svg>
