<?xml version="1.0" encoding="iso-8859-1"?>
<!-- Generator: Adobe Illustrator 19.0.0, SVG Export Plug-In . SVG Version: 6.00 Build 0)  -->
<svg version="1.1" id="Capa_1" xmlns="http://www.w3.org/2000/svg" xmlns:xlink="http://www.w3.org/1999/xlink" x="0px" y="0px"
	 viewBox="0 0 512 512" style="enable-background:new 0 0 512 512;" xml:space="preserve">
<circle style="fill:#54FBFF;" cx="256" cy="256" r="256"/>
<path style="fill:#00D9E0;" d="M512,256c0-15.197-1.332-30.082-3.872-44.551L422.18,125.5H89.82v59.163l95.161,95.149L224,327.943
	V439l70.165,70.165C417.447,490.736,512,384.414,512,256z"/>
<polygon style="fill:#FF127F;" points="106.5,183 224,327.943 224,439 288,412.043 288,327.943 405.5,183 "/>
<polygon style="fill:#B10853;" points="405.5,183 404.15,184.66 288,327.94 288,412.04 256,425.52 256,183 "/>
<rect x="89.82" y="125.5" style="fill:#FFFFFF;" width="332.36" height="59.16"/>
<rect x="256" y="125.5" style="fill:#FFF5CB;" width="166.18" height="59.16"/>
<g>
</g>
<g>
</g>
<g>
</g>
<g>
</g>
<g>
</g>
<g>
</g>
<g>
</g>
<g>
</g>
<g>
</g>
<g>
</g>
<g>
</g>
<g>
</g>
<g>
</g>
<g>
</g>
<g>
</g>
</svg>
