<?xml version="1.0" encoding="iso-8859-1"?>
<!-- Generator: Adobe Illustrator 19.0.0, SVG Export Plug-In . SVG Version: 6.00 Build 0)  -->
<svg version="1.1" id="Capa_1" xmlns="http://www.w3.org/2000/svg" xmlns:xlink="http://www.w3.org/1999/xlink" x="0px" y="0px"
	 viewBox="0 0 512.001 512.001" style="enable-background:new 0 0 512.001 512.001;" xml:space="preserve">
<circle style="fill:#FF127F;" cx="256.001" cy="256" r="256"/>
<path style="fill:#B10853;" d="M512,256c0-12.061-0.854-23.922-2.467-35.539l-135.65-136.2c-9.715-9.95-23.191-15.852-37.621-15.852
	H175.74c-21.023,0-40.025,12.524-48.314,31.844L45.634,290.892l99.126,101.859v28.841l89.479,89.479
	c7.175,0.604,14.43,0.93,21.762,0.93C397.386,512,512,397.385,512,256z"/>
<rect x="191.751" y="68.41" style="fill:#54FBFF;" width="128.5" height="353.18"/>
<rect x="256.001" y="68.41" style="fill:#00D9E0;" width="64.25" height="353.18"/>
<path style="fill:#FFFFFF;" d="M211.945,68.409H175.74c-21.023,0-40.025,12.524-48.314,31.844L45.634,290.892l47.727,22.762
	l51.399-116.748v224.685h111.241V228.479L211.945,68.409z"/>
<g>
	<path style="fill:#FFF5CB;" d="M300.057,68.409h36.205c21.023,0,40.025,12.524,48.314,31.844l81.792,190.638l-47.727,22.762
		l-51.399-116.748V421.59H256.001V228.479L300.057,68.409z"/>
	<polygon style="fill:#FFF5CB;" points="211.945,68.409 172.281,94.643 223.326,165.332 210.66,195.437 256.001,228.479 	"/>
</g>
<g>
	<polygon style="fill:#FFDF47;" points="300.057,68.409 339.721,94.643 288.676,165.332 301.342,195.437 256.001,228.479 	"/>
	<path style="fill:#FFDF47;" d="M318.734,361.557h-23.761c-12.035,0-21.791-9.756-21.791-21.791v-41.869h67.343v41.869
		C340.525,351.801,330.769,361.557,318.734,361.557z"/>
</g>
<rect x="273.181" y="290.53" style="fill:#00D9E0;" width="67.34" height="13.153"/>
<path style="fill:#FFF5CB;" d="M217.029,361.557h-23.761c-12.035,0-21.791-9.756-21.791-21.791v-41.869h67.343v41.869
	C238.819,351.801,229.063,361.557,217.029,361.557z"/>
<rect x="171.481" y="290.53" style="fill:#54FBFF;" width="67.34" height="13.153"/>
<g>
</g>
<g>
</g>
<g>
</g>
<g>
</g>
<g>
</g>
<g>
</g>
<g>
</g>
<g>
</g>
<g>
</g>
<g>
</g>
<g>
</g>
<g>
</g>
<g>
</g>
<g>
</g>
<g>
</g>
</svg>
