<?xml version="1.0" encoding="iso-8859-1"?>
<!-- Generator: Adobe Illustrator 19.0.0, SVG Export Plug-In . SVG Version: 6.00 Build 0)  -->
<svg version="1.1" id="Capa_1" xmlns="http://www.w3.org/2000/svg" xmlns:xlink="http://www.w3.org/1999/xlink" x="0px" y="0px"
	 viewBox="0 0 512 512" style="enable-background:new 0 0 512 512;" xml:space="preserve">
<circle style="fill:#4B5BE5;" cx="256" cy="256" r="256"/>
<path style="fill:#1C2EDE;" d="M511.673,269l-38.684-38.953c-10.387-11.265-30.455-22.679-66.291-31.271
	c-7.376-1.768-15.302-3.385-23.726-4.845L350.52,161.48c-23.918-24.702-57.421-40.067-94.522-40.067
	c-50.893,0-95.034,28.895-116.923,71.173c0.054-0.103,0.103-0.209,0.156-0.312c-12.302,1.858-23.644,4.035-33.934,6.502
	c-60.303,14.459-75.966,36.906-75.966,53.192c0,6.383,3.561,15.044,12.46,24.232L277,511.138
	C404.29,500.801,505.253,397.359,511.673,269z"/>
<circle style="fill:#FFAA20;" cx="256" cy="253" r="131.59"/>
<path style="fill:#FF8900;" d="M387.589,253c0,72.67-58.92,131.59-131.59,131.59V121.41C328.668,121.41,387.589,180.33,387.589,253z
	"/>
<g>
	<circle style="fill:#E67500;" cx="315.02" cy="275.94" r="41.721"/>
	<circle style="fill:#E67500;" cx="325.03" cy="189.94" r="18.527"/>
</g>
<g>
	<circle style="fill:#FF8900;" cx="200.89" cy="198.3" r="35.442"/>
	<circle style="fill:#FF8900;" cx="214.22" cy="330.7" r="26.474"/>
	<circle style="fill:#FF8900;" cx="227.78" cy="262.39" r="13.551"/>
	<circle style="fill:#FF8900;" cx="162.24" cy="282.57" r="20.18"/>
</g>
<path style="fill:#FFFFFF;" d="M482.665,251.968c0,8.896-6.911,22.22-25.571,35.224c-11.941,8.339-28.578,15.698-49.456,21.849
	c-11.311,3.344-23.779,6.295-37.123,8.814c-2.642,0.496-5.315,0.97-8.019,1.435c-0.124,0.031-0.258,0.041-0.382,0.072
	c-32.128,5.459-68.797,8.339-106.116,8.339s-73.988-2.88-106.116-8.339c-0.124-0.031-0.258-0.041-0.382-0.072
	c-2.704-0.464-5.377-0.939-8.019-1.435c-13.344-2.518-25.812-5.47-37.123-8.814c-20.878-6.151-37.515-13.51-49.466-21.849
	c-18.649-13.004-25.561-26.328-25.561-35.224c0-16.286,15.663-38.733,75.966-53.192c10.29-2.466,21.632-4.644,33.934-6.502
	c-5.212,10.001-9.175,20.765-11.693,32.066c-4.572,0.898-8.948,1.848-13.107,2.838c-33.222,7.967-48.094,18.195-48.094,24.79
	c0,7.317,15.161,19.176,49.043,29.166c4.108,1.207,8.401,2.374,12.849,3.468c3.509,0.877,7.121,1.713,10.806,2.508
	c2.209,0.464,4.428,0.929,6.688,1.362c32.437,6.368,70.572,9.743,110.275,9.743s77.837-3.375,110.275-9.743
	c2.26-0.434,4.479-0.898,6.688-1.362c3.684-0.795,7.297-1.631,10.806-2.508c4.448-1.094,8.741-2.26,12.849-3.468
	c33.882-10,49.043-21.849,49.043-29.166c0-6.595-14.872-16.822-48.094-24.79c-4.159-0.991-8.535-1.94-13.107-2.838
	c-2.518-11.301-6.481-22.065-11.693-32.066c12.302,1.858,23.644,4.036,33.934,6.502
	C467.002,213.235,482.665,235.682,482.665,251.968z"/>
<path style="fill:#9CFDFF;" d="M482.668,251.97c0,8.89-6.91,22.22-25.57,35.22c-11.95,8.34-28.58,15.7-49.46,21.85
	c-11.31,3.34-23.78,6.3-37.12,8.81c-2.65,0.5-5.32,0.97-8.02,1.44c-0.13,0.03-0.26,0.04-0.38,0.07
	c-32.13,5.46-68.8,8.34-106.12,8.34v-29.49c39.7,0,77.84-3.37,110.27-9.74c2.27-0.43,4.48-0.9,6.69-1.36
	c3.69-0.8,7.3-1.63,10.81-2.51c4.45-1.09,8.74-2.26,12.85-3.47c33.88-10,49.04-21.84,49.04-29.16c0-6.6-14.87-16.82-48.09-24.79
	c-4.16-0.99-8.54-1.94-13.11-2.84c-2.52-11.3-6.48-22.07-11.69-32.07c12.3,1.86,23.64,4.04,33.93,6.51
	C466.998,213.23,482.668,235.68,482.668,251.97z"/>
<g>
</g>
<g>
</g>
<g>
</g>
<g>
</g>
<g>
</g>
<g>
</g>
<g>
</g>
<g>
</g>
<g>
</g>
<g>
</g>
<g>
</g>
<g>
</g>
<g>
</g>
<g>
</g>
<g>
</g>
</svg>
