<?xml version="1.0" encoding="iso-8859-1"?>
<!-- Generator: Adobe Illustrator 19.0.0, SVG Export Plug-In . SVG Version: 6.00 Build 0)  -->
<svg version="1.1" id="Capa_1" xmlns="http://www.w3.org/2000/svg" xmlns:xlink="http://www.w3.org/1999/xlink" x="0px" y="0px"
	 viewBox="0 0 512 512" style="enable-background:new 0 0 512 512;" xml:space="preserve">
<circle style="fill:#FFAA20;" cx="256" cy="256" r="256"/>
<path style="fill:#E67500;" d="M512,256c0-13.832-1.112-27.403-3.224-40.64L364.256,70.839l-11.77,11.77l16.551,16.551
	l-24.464,24.464L320.72,99.772l-17.006,17.006l16.899,16.899L200.989,253.301l7.977,7.978l-13.488,13.488l10.6,10.6l-16.038,16.038
	l8.795,8.795l-94.358,94.358l102.788,102.788C223.044,510.388,239.333,512,256,512C397.385,512,512,397.385,512,256z"/>
<rect x="152.563" y="288.465" transform="matrix(-0.7071 -0.7071 0.7071 -0.7071 14.6773 722.7088)" style="fill:#FFFFFF;" width="8.908" height="139.699"/>
<g>
	
		<rect x="88.741" y="357.668" transform="matrix(-0.7071 0.7071 -0.7071 -0.7071 525.214 502.2348)" style="fill:#FFF5CB;" width="139.699" height="4.45"/>
	
		<rect x="347.131" y="116.497" transform="matrix(-0.7071 -0.7071 0.7071 -0.7071 554.1145 499.2741)" style="fill:#FFF5CB;" width="66.659" height="36.758"/>
</g>
<rect x="373.868" y="129.996" transform="matrix(-0.7071 0.7071 -0.7071 -0.7071 773.3057 -26.9929)" style="fill:#FFE670;" width="36.75" height="33.33"/>
<rect x="194.217" y="291.32" transform="matrix(-0.7071 -0.7071 0.7071 -0.7071 145.2654 668.6233)" style="fill:#54FBFF;" width="33.785" height="25.813"/>
<rect x="204.175" y="301.753" transform="matrix(-0.7071 0.7071 -0.7071 -0.7071 589.9214 376.0428)" style="fill:#00D9E0;" width="25.81" height="16.89"/>
<rect x="193.514" y="279.511" transform="matrix(-0.7071 -0.7071 0.7071 -0.7071 179.7614 654.3292)" style="fill:#4B5BE5;" width="63.766" height="20.847"/>
<rect x="226.238" y="285.273" transform="matrix(-0.7071 0.7071 -0.7071 -0.7071 616.9902 346.8609)" style="fill:#1C2EDE;" width="20.84" height="31.88"/>
<rect x="248.831" y="137.794" transform="matrix(-0.7071 -0.7071 0.7071 -0.7071 340.5477 587.7263)" style="fill:#FFFFFF;" width="86.329" height="171.078"/>
<rect x="221.722" y="217.019" transform="matrix(-0.7071 0.7071 -0.7071 -0.7071 693.2461 190.0562)" style="fill:#FFF5CB;" width="171.078" height="43.17"/>
<rect x="292.572" y="143.665" transform="matrix(-0.7071 -0.7071 0.7071 -0.7071 503.8477 520.0802)" style="fill:#4B5BE5;" width="134.129" height="24.05"/>
<rect x="371.315" y="145.881" transform="matrix(-0.7071 0.7071 -0.7071 -0.7071 781.2646 35.2106)" style="fill:#1C2EDE;" width="24.05" height="67.059"/>
<rect x="341.753" y="108.519" transform="matrix(-0.7071 -0.7071 0.7071 -0.7071 597.6497 481.2385)" style="fill:#4B5BE5;" width="113.479" height="16.646"/>
<rect x="410.226" y="108.539" transform="matrix(-0.7071 0.7071 -0.7071 -0.7071 811.3209 -62.2425)" style="fill:#1C2EDE;" width="16.65" height="56.739"/>
<rect x="251.266" y="174.175" transform="matrix(-0.7071 -0.7071 0.7071 -0.7071 317.0274 597.4666)" style="fill:#FF127F;" width="61.973" height="117.799"/>
<rect x="234.306" y="228.544" transform="matrix(-0.7071 0.7071 -0.7071 -0.7071 673.095 209.2717)" style="fill:#B10853;" width="117.799" height="30.99"/>
<g>
</g>
<g>
</g>
<g>
</g>
<g>
</g>
<g>
</g>
<g>
</g>
<g>
</g>
<g>
</g>
<g>
</g>
<g>
</g>
<g>
</g>
<g>
</g>
<g>
</g>
<g>
</g>
<g>
</g>
</svg>
