<?xml version="1.0" encoding="iso-8859-1"?>
<!-- Generator: Adobe Illustrator 19.0.0, SVG Export Plug-In . SVG Version: 6.00 Build 0)  -->
<svg version="1.1" id="Capa_1" xmlns="http://www.w3.org/2000/svg" xmlns:xlink="http://www.w3.org/1999/xlink" x="0px" y="0px"
	 viewBox="0 0 512 512" style="enable-background:new 0 0 512 512;" xml:space="preserve">
<circle style="fill:#A3D9F6;" cx="256" cy="256" r="256"/>
<path style="fill:#00ACEA;" d="M512,256c0-20.051-2.31-39.561-6.67-58.284L395.305,87.691h-278.61v336.618l81.021,81.021
	C216.439,509.69,235.949,512,256,512C397.385,512,512,397.385,512,256z"/>
<rect x="116.69" y="87.69" style="fill:#A00647;" width="278.61" height="336.62"/>
<rect x="130.22" y="98.35" style="fill:#FFFFFF;" width="252.03" height="315.29"/>
<rect x="238.03" y="98.36" style="fill:#FFF5CB;" width="144.22" height="315.29"/>
<rect x="116.69" y="87.69" style="fill:#FF127F;" width="242.68" height="336.62"/>
<rect x="238.03" y="87.69" style="fill:#C50A5B;" width="121.34" height="336.62"/>
<path style="fill:#FFFFFF;" d="M305.823,214.69c0.535-0.607,1.063-1.214,1.575-1.823c12.596-14.984,16.619-28.95,11.328-39.326
	s-18.957-15.322-38.483-13.925c-2.955,0.211-6,0.565-9.117,1.052c-0.983-2.997-2.051-5.871-3.205-8.599
	c-7.626-18.028-18.24-27.957-29.887-27.957c-11.647,0-22.262,9.929-29.887,27.957c-1.154,2.728-2.222,5.602-3.205,8.599
	c-3.117-0.486-6.162-0.84-9.117-1.052c-19.52-1.395-33.192,3.549-38.483,13.925s-1.268,24.342,11.328,39.326
	c0.512,0.609,1.039,1.216,1.575,1.823c-0.535,0.607-1.063,1.214-1.575,1.823c-12.596,14.984-16.619,28.95-11.328,39.326
	c4.704,9.225,16.027,14.157,32.202,14.157c2.019,0,4.115-0.077,6.282-0.232c2.955-0.211,6-0.565,9.117-1.052
	c0.982,2.997,2.051,5.871,3.205,8.599c7.626,18.029,18.24,27.957,29.887,27.957c11.648,0,22.262-9.929,29.887-27.957
	c1.154-2.728,2.222-5.602,3.205-8.599c3.117,0.486,6.162,0.84,9.117,1.052c2.168,0.155,4.262,0.232,6.282,0.232
	c16.173,0,27.498-4.933,32.202-14.157c5.291-10.376,1.268-24.342-11.328-39.326C306.886,215.904,306.358,215.297,305.823,214.69z
	 M280.883,168.584c1.968-0.141,3.859-0.21,5.673-0.21c12.438,0,21.11,3.272,24.16,9.252c3.494,6.852-0.224,17.589-10.201,29.457
	c-0.304,0.362-0.615,0.723-0.928,1.085c-6.328-6.139-13.782-12.102-22.068-17.666c-0.89-7.403-2.189-14.496-3.872-21.124
	C276.116,169.02,278.533,168.752,280.883,168.584z M252.533,243.124c-4.827,2.462-9.678,4.693-14.5,6.681
	c-4.822-1.989-9.673-4.22-14.5-6.681c-5.775-2.945-11.303-6.11-16.513-9.436c-0.597-6.153-0.905-12.515-0.905-18.998
	s0.308-12.845,0.905-18.998c5.21-3.326,10.738-6.492,16.513-9.436c4.827-2.462,9.678-4.693,14.5-6.681
	c4.822,1.989,9.673,4.22,14.5,6.681c5.775,2.945,11.303,6.11,16.513,9.436c0.596,6.152,0.905,12.515,0.905,18.998
	s-0.308,12.845-0.905,18.998C263.836,237.014,258.307,240.18,252.533,243.124z M267.562,245.134
	c-0.754,4.595-1.681,9.021-2.773,13.236c-4.764-1.056-9.672-2.418-14.663-4.068c2.167-1.013,4.332-2.068,6.49-3.169
	C260.367,249.221,264.02,247.215,267.562,245.134z M225.939,254.302c-4.991,1.65-9.899,3.011-14.663,4.068
	c-1.091-4.215-2.019-8.641-2.773-13.236c3.542,2.081,7.195,4.087,10.945,5.999C221.607,252.234,223.773,253.289,225.939,254.302z
	 M197.498,227.167c-5.469-4.022-10.452-8.209-14.838-12.477c4.386-4.267,9.369-8.454,14.838-12.477
	c-0.245,4.101-0.372,8.267-0.372,12.477C197.125,218.9,197.252,223.066,197.498,227.167z M208.503,184.247
	c0.754-4.595,1.681-9.021,2.773-13.236c4.764,1.056,9.672,2.418,14.663,4.068c-2.167,1.013-4.332,2.068-6.49,3.169
	C215.699,180.16,212.045,182.165,208.503,184.247z M250.127,175.079c4.991-1.65,9.899-3.011,14.663-4.068
	c1.091,4.215,2.019,8.641,2.773,13.236c-3.542-2.081-7.195-4.087-10.945-5.999C254.458,177.146,252.293,176.092,250.127,175.079z
	 M278.568,202.214c5.469,4.022,10.452,8.209,14.838,12.477c-4.386,4.267-9.369,8.454-14.838,12.477
	c0.245-4.101,0.372-8.267,0.372-12.477C278.94,210.48,278.814,206.315,278.568,202.214z M216.425,155.571
	c6.04-14.28,13.916-22.47,21.608-22.47s15.567,8.19,21.608,22.47c0.918,2.171,1.777,4.445,2.58,6.807
	c-7.813,1.771-15.955,4.302-24.187,7.515c-8.232-3.213-16.375-5.744-24.187-7.515C214.648,160.016,215.507,157.742,216.425,155.571z
	 M165.349,177.626c3.495-6.853,14.367-10.148,29.833-9.042c2.351,0.168,4.767,0.436,7.236,0.794
	c-1.683,6.627-2.981,13.72-3.872,21.124c-8.286,5.563-15.74,11.527-22.068,17.666c-0.314-0.361-0.624-0.723-0.928-1.085
	C165.573,195.214,161.855,184.478,165.349,177.626z M195.182,260.797c-15.465,1.105-26.339-2.189-29.833-9.042
	c-3.494-6.852,0.224-17.589,10.201-29.457c0.304-0.362,0.615-0.723,0.928-1.085c6.328,6.139,13.782,12.102,22.068,17.666
	c0.891,7.403,2.189,14.496,3.872,21.124C199.95,260.361,197.533,260.629,195.182,260.797z M259.641,273.809
	c-6.04,14.28-13.916,22.47-21.608,22.47s-15.568-8.19-21.608-22.47c-0.918-2.171-1.777-4.445-2.58-6.807
	c7.813-1.771,15.955-4.302,24.187-7.515c8.232,3.213,16.375,5.744,24.187,7.515C261.418,269.364,260.559,271.639,259.641,273.809z
	 M310.717,251.755c-3.494,6.852-14.366,10.147-29.833,9.042c-2.351-0.168-4.767-0.436-7.236-0.794
	c1.683-6.627,2.981-13.72,3.872-21.124c8.286-5.563,15.74-11.527,22.068-17.666c0.313,0.361,0.624,0.723,0.928,1.085
	C310.493,234.166,314.211,244.903,310.717,251.755z"/>
<path style="fill:#FFF5CB;" d="M305.822,214.69c0.535-0.607,1.065-1.214,1.573-1.825c12.6-14.982,16.622-28.948,11.332-39.322
	c-5.295-10.379-18.96-15.323-38.486-13.925c-2.953,0.211-6.001,0.566-9.116,1.052c-0.984-2.998-2.05-5.871-3.205-8.599
	c-7.624-18.029-18.241-27.959-29.887-27.959v8.99c7.691,0,15.566,8.19,21.608,22.471c0.917,2.171,1.775,4.445,2.58,6.805
	c-7.812,1.771-15.957,4.302-24.188,7.516v9.682c4.823,1.987,9.673,4.221,14.501,6.68c5.772,2.944,11.3,6.113,16.51,9.439
	c0.598,6.149,0.908,12.514,0.908,18.996c0,6.482-0.31,12.847-0.908,18.996c-5.21,3.326-10.739,6.495-16.51,9.439
	c-4.828,2.459-9.678,4.693-14.501,6.68v9.682c8.23,3.214,16.375,5.745,24.188,7.516c-0.805,2.36-1.663,4.634-2.58,6.805
	c-6.041,14.281-13.917,22.471-21.608,22.471v8.99c11.646,0,22.264-9.93,29.887-27.959c1.155-2.729,2.22-5.601,3.205-8.599
	c3.115,0.485,6.163,0.841,9.116,1.052c2.167,0.157,4.261,0.234,6.284,0.234c16.173,0,27.496-4.935,32.202-14.159
	c5.291-10.374,1.268-24.34-11.332-39.322C306.887,215.904,306.357,215.297,305.822,214.69z M256.615,178.249
	c-2.158-1.101-4.324-2.158-6.491-3.169c4.994-1.65,9.902-3.012,14.667-4.068c1.088,4.212,2.018,8.639,2.769,13.233
	C264.018,182.164,260.368,180.16,256.615,178.249z M264.792,258.368c-4.765-1.056-9.673-2.418-14.667-4.068
	c2.167-1.011,4.333-2.068,6.491-3.169c3.753-1.91,7.403-3.915,10.945-5.996C266.81,249.729,265.879,254.156,264.792,258.368z
	 M280.884,168.585c1.969-0.144,3.861-0.211,5.673-0.211c12.438,0,21.109,3.272,24.161,9.251c3.493,6.855-0.225,17.589-10.204,29.46
	c-0.301,0.36-0.611,0.719-0.926,1.083c-6.329-6.14-13.782-12.105-22.066-17.665c-0.895-7.403-2.189-14.496-3.875-21.126
	C276.115,169.021,278.533,168.751,280.884,168.585z M278.569,202.212c5.471,4.023,10.451,8.212,14.838,12.478
	c-4.387,4.266-9.367,8.455-14.838,12.478c0.243-4.104,0.373-8.266,0.373-12.478C278.942,210.478,278.812,206.316,278.569,202.212z
	 M310.717,251.756c-3.493,6.85-14.366,10.145-29.833,9.04c-2.351-0.166-4.769-0.436-7.237-0.791
	c1.686-6.63,2.98-13.723,3.875-21.126c8.284-5.56,15.737-11.525,22.066-17.665c0.315,0.364,0.625,0.724,0.926,1.083
	C310.492,234.167,314.21,244.901,310.717,251.756z"/>
<circle style="fill:#9CFDFF;" cx="238.03" cy="214.69" r="18.879"/>
<path style="fill:#00E8F2;" d="M256.912,214.69c0,10.428-8.451,18.879-18.879,18.879v-37.758
	C248.461,195.811,256.912,204.262,256.912,214.69z"/>
<rect x="164.07" y="329.17" style="fill:#FFFFFF;" width="147.94" height="16.496"/>
<rect x="238.03" y="329.17" style="fill:#FFF5CB;" width="73.965" height="16.499"/>
<rect x="164.07" y="363.77" style="fill:#FFFFFF;" width="147.94" height="16.496"/>
<rect x="238.03" y="363.76" style="fill:#FFF5CB;" width="73.965" height="16.499"/>
<g>
</g>
<g>
</g>
<g>
</g>
<g>
</g>
<g>
</g>
<g>
</g>
<g>
</g>
<g>
</g>
<g>
</g>
<g>
</g>
<g>
</g>
<g>
</g>
<g>
</g>
<g>
</g>
<g>
</g>
</svg>
