<?xml version="1.0" encoding="iso-8859-1"?>
<!-- Generator: Adobe Illustrator 19.0.0, SVG Export Plug-In . SVG Version: 6.00 Build 0)  -->
<svg version="1.1" id="Capa_1" xmlns="http://www.w3.org/2000/svg" xmlns:xlink="http://www.w3.org/1999/xlink" x="0px" y="0px"
	 viewBox="0 0 512.001 512.001" style="enable-background:new 0 0 512.001 512.001;" xml:space="preserve">
<circle style="fill:#A3D9F6;" cx="256" cy="256" r="256"/>
<path style="fill:#00ACEA;" d="M512,256c0-15.109-1.319-29.908-3.83-44.299L379.802,83.333H132.198v35.306l22.547,21.486v45.165
	c0,12.022,4.999,22.873,13.028,30.598l54.052,54.003c-4.861,8.564-14.056,14.347-24.607,14.347l0,0
	c-23.457,0-42.472,19.016-42.472,42.472v66.651h-22.547v35.306l79.504,79.504c14.39,2.51,29.189,3.83,44.298,3.83
	C397.385,512,512,397.385,512,256z"/>
<path style="fill:#FFFFFF;" d="M314.783,227.762L314.783,227.762c23.457,0,42.472-19.015,42.472-42.472v-85.229h-202.51v85.229
	c0,23.457,19.015,42.472,42.472,42.472l0,0c15.605,0,28.257,12.639,28.282,28.238c-0.025,15.599-12.677,28.238-28.282,28.238l0,0
	c-23.457,0-42.472,19.015-42.472,42.472v85.229h202.511V326.71c0-23.457-19.016-42.472-42.472-42.472l0,0
	c-15.605,0-28.257-12.639-28.282-28.238C286.526,240.401,299.178,227.762,314.783,227.762z"/>
<path style="fill:#9CFDFF;" d="M357.26,100.06v85.23c0,23.46-19.02,42.47-42.48,42.47c-15.6,0-28.25,12.64-28.28,28.24
	c0.02,7.8,3.18,14.86,8.3,19.97c5.12,5.11,12.18,8.27,19.98,8.27c23.46,0,42.48,19.01,42.48,42.47v85.23H256V100.06H357.26z"/>
<path style="fill:#FF127F;" d="M333.904,397.705H178.097v-40.077c0-18.34,14.867-33.207,33.207-33.207h89.392
	c18.34,0,33.207,14.867,33.207,33.207L333.904,397.705L333.904,397.705z"/>
<path style="fill:#B10853;" d="M333.9,357.63v40.08H256v-73.29h44.7C319.04,324.42,333.9,339.29,333.9,357.63z"/>
<g>
	<rect x="132.2" y="83.33" style="fill:#4B5BE5;" width="247.6" height="35.31"/>
	<rect x="132.2" y="393.36" style="fill:#4B5BE5;" width="247.6" height="35.31"/>
</g>
<path style="fill:#FF127F;" d="M178.097,162.449v12.445c0,15.859,11.428,29.048,26.497,31.784c5.646,1.025,11.057,3.076,15.728,6.41
	c7.507,5.359,17.135,14.425,20.838,27.401c1.886,6.608,7.969,11.135,14.841,11.135l0,0c6.872,0,12.955-4.527,14.841-11.135
	c3.703-12.975,13.331-22.041,20.838-27.401c4.67-3.334,10.082-5.385,15.728-6.41c15.07-2.735,26.497-15.925,26.497-31.784v-12.445
	H178.097z"/>
<path style="fill:#B10853;" d="M333.9,162.45v12.44c0,15.86-11.42,29.05-26.49,31.79c-5.65,1.02-11.06,3.07-15.73,6.41
	c-7.51,5.36-17.14,14.42-20.84,27.4c-0.94,3.31-2.94,6.09-5.55,8.04c-2.62,1.96-5.85,3.09-9.29,3.09v-89.17L333.9,162.45
	L333.9,162.45z"/>
<g>
	<rect x="256" y="83.33" style="fill:#1C2EDE;" width="123.8" height="35.31"/>
	<rect x="256" y="393.36" style="fill:#1C2EDE;" width="123.8" height="35.31"/>
</g>
<g>
</g>
<g>
</g>
<g>
</g>
<g>
</g>
<g>
</g>
<g>
</g>
<g>
</g>
<g>
</g>
<g>
</g>
<g>
</g>
<g>
</g>
<g>
</g>
<g>
</g>
<g>
</g>
<g>
</g>
</svg>
