<?xml version="1.0" encoding="iso-8859-1"?>
<!-- Generator: Adobe Illustrator 19.0.0, SVG Export Plug-In . SVG Version: 6.00 Build 0)  -->
<svg version="1.1" id="Capa_1" xmlns="http://www.w3.org/2000/svg" xmlns:xlink="http://www.w3.org/1999/xlink" x="0px" y="0px"
	 viewBox="0 0 512 512" style="enable-background:new 0 0 512 512;" xml:space="preserve">
<circle style="fill:#FFAA20;" cx="256" cy="256" r="256"/>
<path style="fill:#E67500;" d="M511.991,256.747L329.388,73.948C313.172,56.802,289.224,45.912,256,45.912
	c-72.695,0-101.008,52.11-101.008,107.895c0,14.343,2.996,27.984,8.386,40.341c-5.239,6.368-8.386,14.522-8.386,23.412
	c0,10.37,4.283,19.738,11.174,26.438l39.326,39.291c0.831,2.181,2.079,4.153,3.647,5.82l42.16,41.882l-27.404-12.706l-51.588-52.008
	c-1.823-1.788-3.978-3.301-6.427-4.437c-11.511-5.337-25.17-0.332-30.507,11.178c-3.081,6.646-2.71,14.004,0.365,20.066
	c-6.614,1.57-12.47,6.042-15.551,12.687c-4.286,9.243-1.901,19.869,5.165,26.46l42.612,41.758l-1.901,0.882l-8.588-8.66
	c-6.613-6.779-17.028-9.007-26.109-4.796c-11.511,5.337-16.516,18.996-11.179,30.507c0.887,1.912,2.004,3.643,3.302,5.176
	l10.889,10.812c-1.734,5.323-1.546,11.285,0.995,16.765c1.056,2.277,2.437,4.299,4.063,6.037l79.168,78.562
	C230.812,511.06,243.296,512,256,512C397.135,512,511.587,397.787,511.991,256.747z"/>
<path style="fill:#FFFFFF;" d="M357.008,153.807c0-55.785-28.313-107.895-101.008-107.895s-101.008,52.11-101.008,107.895
	c0,14.342,2.996,27.984,8.386,40.341c-5.239,6.368-8.386,14.522-8.386,23.412c0,20.366,16.51,36.875,36.875,36.875
	c4.371,0,8.562-0.765,12.453-2.161v24.728c0,9.765,7.916,17.682,17.682,17.682h0.162v-44.329h13.705v44.329h13.277v-44.329h13.705
	v44.329h13.277v-44.329h13.705v44.329h0.163c9.765,0,17.682-7.916,17.682-17.682v-24.728c3.891,1.396,8.082,2.161,12.453,2.161
	c20.366,0,36.875-16.51,36.875-36.875c0-8.89-3.147-17.044-8.386-23.412C354.012,181.791,357.008,168.15,357.008,153.807z
	 M218.885,170.298h-7.26c-13.169,0-23.944-10.775-23.944-23.944v-7.26c0-13.169,10.775-23.944,23.944-23.944h7.26
	c13.169,0,23.944,10.775,23.944,23.944v7.26C242.829,159.523,232.054,170.298,218.885,170.298z M266.724,216.516h-21.448
	c-6.616,0-10.919-6.963-7.96-12.88l12.469-24.936c2.561-5.121,9.869-5.121,12.429,0l12.469,24.936
	C277.643,209.553,273.34,216.516,266.724,216.516z M324.32,146.354c0,13.169-10.775,23.944-23.944,23.944h-7.26
	c-13.169,0-23.944-10.775-23.944-23.944v-7.26c0-13.169,10.775-23.944,23.944-23.944h7.26c13.169,0,23.944,10.775,23.944,23.944
	V146.354z"/>
<path style="fill:#9CFDFF;" d="M357.01,153.81c0-55.79-28.32-107.9-101.01-107.9v128.95c2.46,0,4.93,1.28,6.21,3.84l12.47,24.94
	c2.96,5.91-1.34,12.88-7.96,12.88H256v33.83h6.85v44.33h13.28v-44.33h13.71v44.33H290c9.76,0,17.68-7.91,17.68-17.68v-24.73
	c3.89,1.4,8.08,2.17,12.45,2.17c20.37,0,36.88-16.51,36.88-36.88c0-8.89-3.15-17.04-8.39-23.41
	C354.01,181.79,357.01,168.15,357.01,153.81z M324.32,146.35c0,13.17-10.78,23.95-23.94,23.95h-7.26
	c-13.17,0-23.95-10.78-23.95-23.95v-7.26c0-13.17,10.78-23.94,23.95-23.94h7.26c13.16,0,23.94,10.77,23.94,23.94V146.35z"/>
<path style="fill:#FFFFFF;" d="M380.634,361.415c-11.511-5.337-25.169-0.332-30.507,11.179c-0.549,1.184-0.984,2.392-1.318,3.61
	l-59-27.356l59-27.357c0.334,1.218,0.769,2.426,1.318,3.61c5.337,11.511,18.996,16.516,30.507,11.178
	c11.511-5.337,16.516-18.995,11.179-30.507c-3.081-6.645-8.938-11.116-15.551-12.687c3.075-6.062,3.446-13.421,0.365-20.066
	c-5.337-11.511-18.996-16.516-30.507-11.178c-11.511,5.337-16.516,18.996-11.179,30.507c0.549,1.184,1.19,2.296,1.904,3.338
	L256,333.17l-80.845-37.485c0.714-1.042,1.355-2.154,1.904-3.338c5.337-11.511,0.332-25.169-11.179-30.507
	c-11.511-5.337-25.17-0.333-30.507,11.178c-3.081,6.646-2.71,14.004,0.365,20.066c-6.614,1.571-12.47,6.042-15.551,12.687
	c-5.337,11.511-0.332,25.169,11.179,30.507c11.511,5.337,25.17,0.333,30.507-11.178c0.549-1.184,0.983-2.392,1.317-3.61l59,27.357
	l-59,27.356c-0.334-1.218-0.768-2.425-1.317-3.61c-5.337-11.511-18.996-16.516-30.507-11.179s-16.516,18.996-11.179,30.507
	c3.081,6.646,8.938,11.116,15.551,12.686c-3.075,6.063-3.446,13.421-0.365,20.066c5.337,11.511,18.996,16.516,30.507,11.179
	s16.516-18.996,11.179-30.507c-0.549-1.184-1.19-2.296-1.904-3.338L256,364.523l80.845,37.485c-0.714,1.042-1.355,2.154-1.904,3.338
	c-5.337,11.511-0.332,25.17,11.179,30.507c11.511,5.337,25.169,0.332,30.507-11.179c3.081-6.645,2.71-14.004-0.365-20.066
	c6.614-1.57,12.47-6.041,15.551-12.686C397.151,380.411,392.146,366.752,380.634,361.415z"/>
<path style="fill:#9CFDFF;" d="M391.81,391.92c-3.08,6.65-8.93,11.12-15.55,12.69c3.08,6.06,3.45,13.42,0.37,20.06
	c-5.34,11.52-19,16.52-30.51,11.18c-11.51-5.33-16.52-18.99-11.18-30.5c0.55-1.19,1.19-2.3,1.91-3.34L256,364.52v-31.35l80.85-37.49
	c-0.72-1.04-1.36-2.15-1.91-3.33c-5.34-11.51-0.33-25.17,11.18-30.51c11.51-5.34,25.17-0.33,30.51,11.18
	c3.08,6.64,2.71,14-0.37,20.06c6.62,1.58,12.47,6.05,15.55,12.69c5.34,11.51,0.34,25.17-11.18,30.51
	c-11.51,5.34-25.16,0.33-30.5-11.18c-0.55-1.18-0.99-2.39-1.32-3.61l-59,27.36l59,27.35c0.33-1.21,0.77-2.42,1.32-3.61
	c5.34-11.51,18.99-16.51,30.5-11.18C392.15,366.75,397.15,380.41,391.81,391.92z"/>
<g>
</g>
<g>
</g>
<g>
</g>
<g>
</g>
<g>
</g>
<g>
</g>
<g>
</g>
<g>
</g>
<g>
</g>
<g>
</g>
<g>
</g>
<g>
</g>
<g>
</g>
<g>
</g>
<g>
</g>
</svg>
