<?xml version="1.0" encoding="iso-8859-1"?>
<!-- Generator: Adobe Illustrator 19.0.0, SVG Export Plug-In . SVG Version: 6.00 Build 0)  -->
<svg version="1.1" id="Capa_1" xmlns="http://www.w3.org/2000/svg" xmlns:xlink="http://www.w3.org/1999/xlink" x="0px" y="0px"
	 viewBox="0 0 512 512" style="enable-background:new 0 0 512 512;" xml:space="preserve">
<circle style="fill:#4B5BE5;" cx="256" cy="256" r="256"/>
<path style="fill:#1C2EDE;" d="M509.398,292.503L293.456,76.561c-9.976-10.194-21.202-20.646-33.846-31.231
	c0,0-170.84,114.744-151.768,261.857c5.562,42.903,24.728,73.471,47.652,95.158l109.481,109.481
	C389.91,507.52,492.092,413.703,509.398,292.503z"/>
<path style="fill:#FFE670;" d="M259.61,45.33c0,0-170.841,114.744-151.768,261.857C124.287,434.04,259.61,453.17,259.61,453.17
	s187.818-21.068,138.17-270.2c0,0-6.514,7.534-14.556,15.745c-4.51,4.605-11.428,9.65-11.428,9.65S362.146,131.164,259.61,45.33z"/>
<path style="fill:#FEC000;" d="M259.612,453.17V219.66c-0.102-0.081,0-0.122,0-0.122V45.33
	c102.534,85.834,112.184,163.034,112.184,163.034s6.918-5.048,11.428-9.65c8.045-8.208,14.556-15.745,14.556-15.745
	C447.432,432.103,259.612,453.17,259.612,453.17z"/>
<path style="fill:#FF9A00;" d="M259.61,219.781v-0.243c0,0,0.096,0.044,0,0.121c-0.096-0.077,0-0.121,0-0.121V219.781
	c-7.353,5.967-147.941,122.675,0,205.791v0.172c0.051-0.029-0.051-0.057,0-0.086c0.051,0.029-0.051,0.057,0,0.086v-0.172
	C407.551,342.456,266.962,225.748,259.61,219.781z"/>
<path style="fill:#FF8900;" d="M259.612,219.538v0.122C259.511,219.579,259.612,219.538,259.612,219.538z"/>
<path style="fill:#FFAA20;" d="M259.612,219.66c-0.102-0.081,0-0.122,0-0.122S259.704,219.579,259.612,219.66z"/>
<path style="fill:#E67500;" d="M259.612,425.571V219.782C266.967,225.745,407.552,342.459,259.612,425.571z"/>
<g>
</g>
<g>
</g>
<g>
</g>
<g>
</g>
<g>
</g>
<g>
</g>
<g>
</g>
<g>
</g>
<g>
</g>
<g>
</g>
<g>
</g>
<g>
</g>
<g>
</g>
<g>
</g>
<g>
</g>
</svg>
