<?xml version="1.0" encoding="iso-8859-1"?>
<!-- Generator: Adobe Illustrator 19.0.0, SVG Export Plug-In . SVG Version: 6.00 Build 0)  -->
<svg version="1.1" id="Capa_1" xmlns="http://www.w3.org/2000/svg" xmlns:xlink="http://www.w3.org/1999/xlink" x="0px" y="0px"
	 viewBox="0 0 512 512" style="enable-background:new 0 0 512 512;" xml:space="preserve">
<circle style="fill:#FFDBA9;" cx="256" cy="256" r="256"/>
<path style="fill:#FFB74F;" d="M510.396,284.646L328.64,102.89C310.774,82.988,284.851,70.465,256,70.465
	c-53.898,0-97.59,43.693-97.59,97.59c0,11.628,2.038,22.779,5.769,33.12c-51.685,2.484-92.827,45.173-92.827,97.473
	c0,28.851,12.523,54.774,32.426,72.64l140.431,140.431c3.91,0.177,7.839,0.281,11.792,0.281
	C387.699,512,496.152,412.545,510.396,284.646z"/>
<circle style="fill:#FFFFFF;" cx="256" cy="168.06" r="97.59"/>
<g>
	<path style="fill:#FFF5CB;" d="M353.59,168.06c0,53.89-43.69,97.59-97.59,97.59V70.46C309.9,70.46,353.59,114.16,353.59,168.06z"/>
	<path style="fill:#FFF5CB;" d="M256,70.465c-7.094,0-14.009,0.764-20.673,2.202v190.778c6.664,1.438,13.579,2.201,20.673,2.201
		c7.094,0,14.009-0.764,20.673-2.201V72.666C270.009,71.229,263.094,70.465,256,70.465z"/>
</g>
<path style="fill:#FFE670;" d="M276.67,72.67v190.77c-6.66,1.44-13.58,2.21-20.67,2.21V70.46
	C263.09,70.46,270.01,71.23,276.67,72.67z"/>
<circle style="fill:#6D76E7;" cx="168.94" cy="298.65" r="97.59"/>
<g>
	<path style="fill:#4B5BE5;" d="M266.53,298.645c0,53.9-43.69,97.59-97.59,97.59v-195.18
		C222.84,201.055,266.53,244.755,266.53,298.645z"/>
	<path style="fill:#4B5BE5;" d="M168.942,201.058c-7.094,0-14.009,0.764-20.673,2.202v190.778
		c6.664,1.438,13.579,2.202,20.673,2.202c7.094,0,14.009-0.764,20.673-2.202V203.259
		C182.951,201.822,176.036,201.058,168.942,201.058z"/>
</g>
<path style="fill:#1C2EDE;" d="M189.61,203.255v190.78c-6.66,1.44-13.57,2.2-20.67,2.2v-195.18
	C176.04,201.055,182.95,201.825,189.61,203.255z"/>
<circle style="fill:#FF52A1;" cx="343.06" cy="298.65" r="97.59"/>
<path style="fill:#FF127F;" d="M440.647,298.645c0,53.9-43.69,97.59-97.59,97.59v-195.18
	C396.957,201.055,440.647,244.755,440.647,298.645z"/>
<path style="fill:#E80C6A;" d="M343.058,201.058c-7.094,0-14.009,0.764-20.673,2.202v190.778c6.664,1.438,13.579,2.202,20.673,2.202
	s14.009-0.764,20.673-2.202V203.259C357.067,201.822,350.152,201.058,343.058,201.058z"/>
<path style="fill:#B10853;" d="M363.726,203.255v190.78c-6.66,1.44-13.57,2.2-20.67,2.2v-195.18
	C350.156,201.055,357.066,201.825,363.726,203.255z"/>
<g>
</g>
<g>
</g>
<g>
</g>
<g>
</g>
<g>
</g>
<g>
</g>
<g>
</g>
<g>
</g>
<g>
</g>
<g>
</g>
<g>
</g>
<g>
</g>
<g>
</g>
<g>
</g>
<g>
</g>
</svg>
