<?xml version="1.0" encoding="iso-8859-1"?>
<!-- Generator: Adobe Illustrator 19.0.0, SVG Export Plug-In . SVG Version: 6.00 Build 0)  -->
<svg version="1.1" id="Capa_1" xmlns="http://www.w3.org/2000/svg" xmlns:xlink="http://www.w3.org/1999/xlink" x="0px" y="0px"
	 viewBox="0 0 512 512" style="enable-background:new 0 0 512 512;" xml:space="preserve">
<circle style="fill:#4B5BE5;" cx="256" cy="256" r="256"/>
<path style="fill:#1C2EDE;" d="M512,256c0-20.527-2.431-40.483-6.994-59.612L397.068,88.45L120.89,88.453V127h-13.039
	c-7.18,0-13,5.82-13,13c0,3.542,1.417,6.752,3.716,9.096l22.323,20.454V243h-13.039c-7.18,0-13,5.82-13,13
	c0,3.78,1.614,7.181,4.189,9.555l21.85,19.994V359h-13.039c-7.18,0-13,5.82-13,13c0,3.565,1.436,6.793,3.76,9.141l22.279,20.409
	v21.998l83.178,83.178C220.839,510.181,238.207,512,256,512C397.385,512,512,397.385,512,256z"/>
<rect x="155.4" y="88.45" style="fill:#FF8900;" width="241.67" height="335.09"/>
<rect x="271.72" y="88.45" style="fill:#E67500;" width="125.35" height="335.1"/>
<rect x="155.4" y="88.45" style="fill:#FFFFFF;" width="230.63" height="335.09"/>
<rect x="271.72" y="88.45" style="fill:#FFF5CB;" width="114.31" height="335.1"/>
<rect x="126.6" y="88.45" style="fill:#FFAA20;" width="241.67" height="335.09"/>
<rect x="271.72" y="88.45" style="fill:#FF8900;" width="96.55" height="335.1"/>
<rect x="120.89" y="88.45" style="fill:#E67500;" width="54.41" height="335.09"/>
<g>
	<rect x="208.88" y="134" style="fill:#FFFFFF;" width="125.67" height="148"/>
	<path style="fill:#FFFFFF;" d="M133.929,153h-26.078c-7.18,0-13-5.82-13-13l0,0c0-7.18,5.82-13,13-13h26.078c7.18,0,13,5.82,13,13
		l0,0C146.929,147.18,141.109,153,133.929,153z"/>
</g>
<path style="fill:#FFF5CB;" d="M146.928,140c0,3.59-1.46,6.84-3.81,9.19c-2.35,2.35-5.6,3.81-9.19,3.81h-13.04v-26h13.04
	C141.108,127,146.928,132.82,146.928,140z"/>
<path style="fill:#FFFFFF;" d="M133.929,269h-26.078c-7.18,0-13-5.82-13-13l0,0c0-7.18,5.82-13,13-13h26.078c7.18,0,13,5.82,13,13
	l0,0C146.929,263.18,141.109,269,133.929,269z"/>
<path style="fill:#FFF5CB;" d="M146.928,256c0,3.59-1.46,6.84-3.81,9.19c-2.35,2.35-5.6,3.81-9.19,3.81h-13.04v-26h13.04
	C141.108,243,146.928,248.82,146.928,256z"/>
<path style="fill:#FFFFFF;" d="M133.929,385h-26.078c-7.18,0-13-5.82-13-13l0,0c0-7.18,5.82-13,13-13h26.078c7.18,0,13,5.82,13,13
	l0,0C146.929,379.18,141.109,385,133.929,385z"/>
<g>
	<path style="fill:#FFF5CB;" d="M146.928,372c0,3.59-1.46,6.84-3.81,9.19c-2.35,2.35-5.6,3.81-9.19,3.81h-13.04v-26h13.04
		C141.108,359,146.928,364.82,146.928,372z"/>
	<rect x="271.72" y="134" style="fill:#FFF5CB;" width="62.83" height="148"/>
</g>
<g>
</g>
<g>
</g>
<g>
</g>
<g>
</g>
<g>
</g>
<g>
</g>
<g>
</g>
<g>
</g>
<g>
</g>
<g>
</g>
<g>
</g>
<g>
</g>
<g>
</g>
<g>
</g>
<g>
</g>
</svg>
