<?xml version="1.0" encoding="iso-8859-1"?>
<!-- Generator: Adobe Illustrator 19.0.0, SVG Export Plug-In . SVG Version: 6.00 Build 0)  -->
<svg version="1.1" id="Capa_1" xmlns="http://www.w3.org/2000/svg" xmlns:xlink="http://www.w3.org/1999/xlink" x="0px" y="0px"
	 viewBox="0 0 512 512" style="enable-background:new 0 0 512 512;" xml:space="preserve">
<circle style="fill:#9CFDFF;" cx="256" cy="256" r="256"/>
<path style="fill:#00D9E0;" d="M512,256c0-4.748-0.14-9.462-0.395-14.146l-99.506-99.506c-7.19-8.057-15.619-14.438-24.985-18.698
	c-71.818-32.668-123.405,31.216-130.315,40.376l-12.108-12.092c-19.67-20.188-63.527-53.884-119.807-28.284
	c-37.156,16.901-59.628,67.112-48.111,123.411H46.416v16l246.306,246.306C416.707,491.554,512,384.914,512,256z"/>
<path style="fill:#FF52A1;" d="M387.115,123.65C309.857,88.508,256,165.111,256,165.111s-53.856-76.603-131.114-41.461
	C47.759,158.732,33.876,337.331,256,416C478.123,337.331,464.241,158.732,387.115,123.65z"/>
<path style="fill:#E80C6A;" d="M255.991,416V165.118c0,0,53.867-76.609,131.13-41.471C464.232,158.729,478.132,337.335,255.991,416z
	"/>
<polygon style="fill:#FFFFFF;" points="321.816,341.851 299.135,221.208 282.338,263.061 217.94,263.061 187.608,325.946 
	169.261,239.245 154.742,263.061 46.416,263.061 46.416,247.061 145.758,247.061 176.572,196.514 193.559,276.781 207.893,247.061 
	271.519,247.061 304.722,164.329 326.684,281.141 338.962,247.061 465.583,247.061 465.583,263.061 350.205,263.061 "/>
<polygon style="fill:#FFF5CB;" points="465.58,247.06 465.58,263.06 350.2,263.06 321.82,341.85 299.14,221.21 282.34,263.06 
	256,263.06 256,247.06 271.52,247.06 304.72,164.33 326.68,281.14 338.96,247.06 "/>
<g>
</g>
<g>
</g>
<g>
</g>
<g>
</g>
<g>
</g>
<g>
</g>
<g>
</g>
<g>
</g>
<g>
</g>
<g>
</g>
<g>
</g>
<g>
</g>
<g>
</g>
<g>
</g>
<g>
</g>
</svg>
