<?xml version="1.0" encoding="iso-8859-1"?>
<!-- Generator: Adobe Illustrator 19.0.0, SVG Export Plug-In . SVG Version: 6.00 Build 0)  -->
<svg version="1.1" id="Capa_1" xmlns="http://www.w3.org/2000/svg" xmlns:xlink="http://www.w3.org/1999/xlink" x="0px" y="0px"
	 viewBox="0 0 512 512" style="enable-background:new 0 0 512 512;" xml:space="preserve">
<circle style="fill:#FF127F;" cx="256" cy="256" r="256"/>
<path style="fill:#B10853;" d="M512,256c0-15.32-1.35-30.323-3.93-44.903L385.741,88.769c-4.853-4.969-11.612-8.067-19.064-8.067
	H145.324c-14.679,0-26.689,12.01-26.689,26.689v297.216c0,7.515,3.151,14.327,8.194,19.188l84.176,84.259
	C225.613,510.645,240.648,512,256,512C397.385,512,512,397.385,512,256z"/>
<path style="fill:#54FBFF;" d="M366.677,431.298H145.324c-14.679,0-26.689-12.01-26.689-26.689V107.392
	c0-14.679,12.01-26.689,26.689-26.689h221.353c14.679,0,26.689,12.01,26.689,26.689v297.217
	C393.366,419.288,381.356,431.298,366.677,431.298z"/>
<path style="fill:#00D9E0;" d="M393.37,107.39v297.22c0,14.68-12.01,26.69-26.69,26.69H256V80.7h110.68
	C381.36,80.7,393.37,92.71,393.37,107.39z"/>
<rect x="141.18" y="113.56" style="fill:#FFFFFF;" width="229.64" height="290.98"/>
<rect x="256" y="113.56" style="fill:#FFF5CB;" width="114.82" height="290.99"/>
<g>
	<rect x="169.12" y="165.68" style="fill:#6D76E7;" width="52.28" height="20.11"/>
	<rect x="241.9" y="165.68" style="fill:#6D76E7;" width="100.98" height="20.11"/>
</g>
<rect x="256" y="165.68" style="fill:#1C2EDE;" width="86.88" height="20.11"/>
<g>
	<rect x="169.12" y="256" style="fill:#6D76E7;" width="52.28" height="20.11"/>
	<rect x="241.9" y="256" style="fill:#6D76E7;" width="100.98" height="20.11"/>
</g>
<rect x="256" y="256" style="fill:#1C2EDE;" width="86.88" height="20.11"/>
<g>
	<rect x="169.12" y="346.33" style="fill:#6D76E7;" width="52.28" height="20.11"/>
	<rect x="241.9" y="346.33" style="fill:#6D76E7;" width="100.98" height="20.11"/>
</g>
<g>
	<rect x="256" y="346.33" style="fill:#1C2EDE;" width="86.88" height="20.11"/>
	<rect x="290.6" y="210.84" style="fill:#1C2EDE;" width="52.28" height="20.11"/>
</g>
<rect x="169.12" y="210.84" style="fill:#6D76E7;" width="100.98" height="20.11"/>
<g>
	<rect x="256" y="210.84" style="fill:#1C2EDE;" width="14.1" height="20.11"/>
	<rect x="290.6" y="301.16" style="fill:#1C2EDE;" width="52.28" height="20.11"/>
</g>
<rect x="169.12" y="301.16" style="fill:#6D76E7;" width="100.98" height="20.11"/>
<rect x="256" y="301.16" style="fill:#1C2EDE;" width="14.1" height="20.11"/>
<path style="fill:#FFAA20;" d="M307.096,139.321H204.904c-5.327,0-9.646-4.319-9.646-9.646v-27.183c0-5.327,4.319-9.646,9.646-9.646
	h102.193c5.327,0,9.646,4.319,9.646,9.646v27.183C316.742,135.003,312.424,139.321,307.096,139.321z"/>
<path style="fill:#E67500;" d="M316.74,102.49v27.19c0,5.32-4.32,9.64-9.64,9.64H256V92.85h51.1
	C312.42,92.85,316.74,97.16,316.74,102.49z"/>
<g>
</g>
<g>
</g>
<g>
</g>
<g>
</g>
<g>
</g>
<g>
</g>
<g>
</g>
<g>
</g>
<g>
</g>
<g>
</g>
<g>
</g>
<g>
</g>
<g>
</g>
<g>
</g>
<g>
</g>
</svg>
