<?xml version="1.0" encoding="iso-8859-1"?>
<!-- Generator: Adobe Illustrator 19.0.0, SVG Export Plug-In . SVG Version: 6.00 Build 0)  -->
<svg version="1.1" id="Capa_1" xmlns="http://www.w3.org/2000/svg" xmlns:xlink="http://www.w3.org/1999/xlink" x="0px" y="0px"
	 viewBox="0 0 512 512" style="enable-background:new 0 0 512 512;" xml:space="preserve">
<circle style="fill:#A3D9F6;" cx="256" cy="256" r="256"/>
<path style="fill:#00ACEA;" d="M511.099,277.432L291.38,57.751c-8.823-9.482-21.406-15.417-35.38-15.417l0,0
	c-26.692,0-48.33,21.638-48.33,48.33V291.67c-26.938,16.354-44.934,45.965-44.934,79.78c0,26.468,11.029,50.358,28.739,67.333
	c0,0,41.206,41.243,73.059,73.061C394.804,507.574,500.441,405.989,511.099,277.432z"/>
<path style="fill:#FFFFFF;" d="M304.33,291.669V90.663c0-26.692-21.638-48.33-48.33-48.33l0,0c-26.692,0-48.33,21.638-48.33,48.33
	v201.006c-26.938,16.353-44.934,45.965-44.934,79.78c0,51.508,41.756,93.264,93.264,93.264s93.264-41.756,93.264-93.264
	C349.264,337.634,331.267,308.023,304.33,291.669z"/>
<path style="fill:#54FBFF;" d="M349.26,371.45c0,51.51-41.75,93.26-93.26,93.26V42.33c26.69,0,48.33,21.64,48.33,48.33v201.01
	C331.27,308.02,349.26,337.63,349.26,371.45z"/>
<path style="fill:#FF127F;" d="M274.791,318.406V137.458h-37.582v180.948c-21.834,7.736-37.478,28.558-37.478,53.043
	c0,31.077,25.193,56.269,56.269,56.269s56.269-25.193,56.269-56.269C312.269,346.964,296.625,326.142,274.791,318.406z"/>
<path style="fill:#B10853;" d="M312.27,371.45c0,31.08-25.19,56.27-56.27,56.27V137.46h18.79v180.95
	C296.63,326.14,312.27,346.96,312.27,371.45z"/>
<g>
</g>
<g>
</g>
<g>
</g>
<g>
</g>
<g>
</g>
<g>
</g>
<g>
</g>
<g>
</g>
<g>
</g>
<g>
</g>
<g>
</g>
<g>
</g>
<g>
</g>
<g>
</g>
<g>
</g>
</svg>
